<svg width="64" height="65" viewBox="0 0 64 65" fill="none" xmlns="http://www.w3.org/2000/svg">
<path d="M24 38.1986L40 22.1986M25.3333 23.5319H25.36M38.6666 36.8652H38.6933M50.6666 56.8652V14.1986C50.6666 12.7841 50.1047 11.4275 49.1045 10.4273C48.1044 9.42714 46.7478 8.86523 45.3333 8.86523H18.6666C17.2522 8.86523 15.8956 9.42714 14.8954 10.4273C13.8952 11.4275 13.3333 12.7841 13.3333 14.1986V56.8652L22.6666 51.5319L32 56.8652L41.3333 51.5319L50.6666 56.8652ZM26.6666 23.5319C26.6666 23.8855 26.5262 24.2247 26.2761 24.4747C26.0261 24.7248 25.6869 24.8652 25.3333 24.8652C24.9797 24.8652 24.6406 24.7248 24.3905 24.4747C24.1405 24.2247 24 23.8855 24 23.5319C24 23.1783 24.1405 22.8391 24.3905 22.5891C24.6406 22.339 24.9797 22.1986 25.3333 22.1986C25.6869 22.1986 26.0261 22.339 26.2761 22.5891C26.5262 22.8391 26.6666 23.1783 26.6666 23.5319ZM40 36.8652C40 37.2189 39.8595 37.558 39.6095 37.808C39.3594 38.0581 39.0203 38.1986 38.6666 38.1986C38.313 38.1986 37.9739 38.0581 37.7238 37.808C37.4738 37.558 37.3333 37.2189 37.3333 36.8652C37.3333 36.5116 37.4738 36.1725 37.7238 35.9224C37.9739 35.6724 38.313 35.5319 38.6666 35.5319C39.0203 35.5319 39.3594 35.6724 39.6095 35.9224C39.8595 36.1725 40 36.5116 40 36.8652Z" stroke="#EC3B33" stroke-width="4" stroke-linecap="round" stroke-linejoin="round"/>
</svg>
