<svg width="64" height="65" viewBox="0 0 64 65" fill="none" xmlns="http://www.w3.org/2000/svg">
<path d="M56.0256 49.9286C59.8405 46.5286 62.0006 41.9967 62.0006 37.2939C62.0006 32.2959 59.6609 27.6216 55.4123 24.1314C51.2773 20.7356 45.804 18.8652 40 18.8652C34.196 18.8652 28.7227 20.7356 24.5884 24.1316C20.3398 27.6216 18 32.2959 18 37.2939C18 42.2919 20.3398 46.9661 24.5884 50.4564C28.7227 53.8524 34.196 55.7226 40 55.7226C40.7734 55.7226 41.5515 55.6885 42.3231 55.6206L43.6414 56.7632C48.1828 60.6986 53.9907 62.865 60 62.8652H62V58.6081L61.4142 58.0225C59.1035 55.7049 57.2724 52.9545 56.0256 49.9286ZM46.2611 53.7402L43.616 51.4476L42.734 51.5557C41.8269 51.6667 40.9139 51.7223 40 51.7224C30.075 51.7224 22 45.2497 22 37.2939C22 29.338 30.075 22.8652 40 22.8652C49.925 22.8652 58 29.3379 58 37.2939C58 41.2576 56.0225 44.9581 52.4318 47.7136L51.2799 48.5975L51.8114 50.1019C52.9006 53.1743 54.5016 56.0404 56.5466 58.579C52.7382 57.9433 49.179 56.2689 46.2611 53.7402Z" fill="#EC3B33"/>
<path d="M7.52313 40.5497C9.39528 38.1799 10.8652 35.5185 11.8741 32.6719L12.4016 31.175L11.2507 30.2917C7.86475 27.6935 6 24.2062 6 20.4724C6 12.9694 13.6261 6.86523 23 6.86523C29.896 6.86523 35.8459 10.169 38.5096 14.9027C39.0042 14.8787 39.501 14.8652 40 14.8652C41.0023 14.8652 41.9953 14.9139 42.9793 15.0111C41.9499 12.3442 40.1621 9.90973 37.7043 7.89098C33.759 4.65011 28.5375 2.86523 23 2.86523C17.4625 2.86523 12.241 4.65011 8.2955 7.89098C4.23575 11.2259 2 15.694 2 20.4724C2 24.9474 4.044 29.2592 7.65625 32.5027C6.47742 35.3396 4.75494 37.9184 2.58588 40.0939L2 40.6796V44.8652H4C7.69839 44.8648 11.3459 44.0035 14.6539 42.3496C14.2911 40.9748 14.0786 39.5647 14.02 38.144C12.0122 39.3207 9.81308 40.135 7.52313 40.5497Z" fill="#EC3B33"/>
</svg>
