<svg width="20" height="21" viewBox="0 0 20 21" fill="none" xmlns="http://www.w3.org/2000/svg">
<path d="M10 3.49023C7.59063 3.49023 5.625 5.45586 5.625 7.86523C5.625 9.37148 6.39375 10.709 7.55875 11.4984C5.32938 12.4546 3.75 14.6671 3.75 17.2402H5C4.99921 16.3858 5.21795 15.5454 5.63525 14.7998C6.05255 14.0542 6.65441 13.4283 7.38312 12.9821C7.59638 13.5012 7.95887 13.9454 8.42471 14.2584C8.89055 14.5713 9.43879 14.739 10 14.7402C10.5613 14.7392 11.1097 14.5715 11.5757 14.2585C12.0416 13.9456 12.4042 13.5013 12.6175 12.9821C13.3461 13.4284 13.9478 14.0543 14.365 14.7999C14.7822 15.5455 15.0009 16.3858 15 17.2402H16.25C16.25 14.6671 14.6706 12.4552 12.4412 11.4977C13.0358 11.0963 13.523 10.5554 13.8601 9.9221C14.1972 9.28885 14.374 8.58263 14.375 7.86523C14.375 5.45586 12.4094 3.49023 10 3.49023ZM10 4.74023C11.7331 4.74023 13.125 6.13211 13.125 7.86523C13.125 9.59836 11.7331 10.9902 10 10.9902C8.26687 10.9902 6.875 9.59836 6.875 7.86523C6.875 6.13211 8.26687 4.74023 10 4.74023ZM10 12.2402C10.5125 12.2402 11.0012 12.3134 11.465 12.4552C11.3582 12.7585 11.16 13.0212 10.8976 13.207C10.6351 13.3928 10.3215 13.4926 10 13.4926C9.67846 13.4926 9.36485 13.3928 9.10244 13.207C8.84004 13.0212 8.64177 12.7585 8.535 12.4552C9.00993 12.3111 9.50369 12.2387 10 12.2402Z" fill="#4F4F4F"/>
</svg>
