<svg width="25" height="24" viewBox="0 0 25 24" fill="none" xmlns="http://www.w3.org/2000/svg">
<path d="M21.125 6.99375H12.7109L9.96172 4.36406C9.92674 4.33132 9.88073 4.31291 9.83281 4.3125H3.875C3.46016 4.3125 3.125 4.64766 3.125 5.0625V18.9375C3.125 19.3523 3.46016 19.6875 3.875 19.6875H21.125C21.5398 19.6875 21.875 19.3523 21.875 18.9375V7.74375C21.875 7.32891 21.5398 6.99375 21.125 6.99375ZM15.3125 13.5234C15.3125 13.6125 15.2328 13.6875 15.1367 13.6875H13.1562V15.6773C13.1562 15.7688 13.0813 15.8438 12.9922 15.8438H12.0078C11.9187 15.8438 11.8438 15.7688 11.8438 15.6773V13.6875H9.86328C9.76719 13.6875 9.6875 13.6125 9.6875 13.5234V12.5391C9.6875 12.45 9.76719 12.375 9.86328 12.375H11.8438V10.3852C11.8438 10.2938 11.9187 10.2188 12.0078 10.2188H12.9922C13.0813 10.2188 13.1562 10.2938 13.1562 10.3852V12.375H15.1367C15.2328 12.375 15.3125 12.45 15.3125 12.5391V13.5234Z" fill="#EC3B33"/>
</svg>
