<svg width="10" height="7" viewBox="0 0 10 7" fill="none" xmlns="http://www.w3.org/2000/svg">
<path d="M8.75009 6.32235H1.25009C1.17415 6.32211 1.09972 6.30117 1.03481 6.26178C0.969889 6.22238 0.916945 6.16603 0.881672 6.09879C0.846399 6.03154 0.830134 5.95595 0.834627 5.88015C0.83912 5.80435 0.864202 5.73121 0.90717 5.6686L4.65717 0.251934C4.81259 0.0273503 5.18675 0.0273503 5.34259 0.251934L9.09259 5.6686C9.13599 5.73108 9.16145 5.80425 9.16618 5.88018C9.17092 5.95611 9.15476 6.03188 9.11946 6.09927C9.08415 6.16666 9.03105 6.22308 8.96593 6.26241C8.90081 6.30174 8.82616 6.32247 8.75009 6.32235Z" fill="#EC3B33"/>
</svg>
