<svg width="16" height="17" viewBox="0 0 16 17" fill="none" xmlns="http://www.w3.org/2000/svg">
<path d="M8.97016 5.47004C9.11103 5.33593 9.29848 5.26179 9.49298 5.26326C9.68747 5.26473 9.87378 5.3417 10.0126 5.47793C10.1514 5.61416 10.2319 5.79899 10.237 5.99342C10.2422 6.18785 10.1716 6.37667 10.0402 6.52004L6.05016 11.51C5.98155 11.5839 5.89874 11.6432 5.80669 11.6844C5.71464 11.7256 5.61523 11.7478 5.51441 11.7496C5.41359 11.7515 5.31343 11.733 5.21991 11.6953C5.1264 11.6575 5.04146 11.6013 4.97016 11.53L2.32416 8.88404C2.25047 8.81538 2.19137 8.73258 2.15038 8.64058C2.10938 8.54858 2.08734 8.44927 2.08557 8.34857C2.08379 8.24786 2.10231 8.14783 2.14003 8.05445C2.17776 7.96106 2.2339 7.87622 2.30512 7.805C2.37634 7.73379 2.46117 7.67764 2.55456 7.63992C2.64795 7.6022 2.74798 7.58367 2.84868 7.58545C2.94938 7.58723 3.0487 7.60927 3.1407 7.65026C3.2327 7.69125 3.3155 7.75036 3.38416 7.82404L5.47816 9.91704L8.95016 5.49204C8.95639 5.48432 8.96306 5.47698 8.97016 5.47004ZM8.05016 10.61L8.97016 11.53C9.04144 11.6012 9.12632 11.6573 9.21974 11.6949C9.31316 11.7325 9.4132 11.751 9.5139 11.7491C9.6146 11.7472 9.71389 11.7251 9.80585 11.684C9.89781 11.643 9.98056 11.5838 10.0492 11.51L14.0412 6.52004C14.1129 6.44924 14.1696 6.36472 14.2079 6.27152C14.2462 6.17832 14.2654 6.07835 14.2642 5.97758C14.263 5.87682 14.2415 5.77732 14.2011 5.68504C14.1606 5.59276 14.1019 5.50958 14.0286 5.44047C13.9552 5.37137 13.8687 5.31775 13.7742 5.28282C13.6797 5.24789 13.5791 5.23237 13.4784 5.23718C13.3778 5.242 13.2791 5.26705 13.1883 5.31084C13.0976 5.35462 13.0166 5.41625 12.9502 5.49204L9.47716 9.91704L8.99216 9.43104L8.04916 10.61H8.05016Z" fill="white"/>
</svg>
