<svg width="81" height="81" viewBox="0 0 81 81" fill="none" xmlns="http://www.w3.org/2000/svg">
<g clip-path="url(#clip0_978_876)">
<path fill-rule="evenodd" clip-rule="evenodd" d="M40.5 76.8652C60.382 76.8652 76.5 60.7472 76.5 40.8652C76.5 20.9832 60.382 4.86523 40.5 4.86523C20.618 4.86523 4.5 20.9832 4.5 40.8652C4.5 60.7472 20.618 76.8652 40.5 76.8652ZM40.5 80.8652C62.592 80.8652 80.5 62.9572 80.5 40.8652C80.5 18.7732 62.592 0.865234 40.5 0.865234C18.408 0.865234 0.5 18.7732 0.5 40.8652C0.5 62.9572 18.408 80.8652 40.5 80.8652Z" fill="#D63C45"/>
<path fill-rule="evenodd" clip-rule="evenodd" d="M24.944 56.4212C24.5691 56.0462 24.3584 55.5376 24.3584 55.0072C24.3584 54.4769 24.5691 53.9683 24.944 53.5932L53.228 25.3092C53.6052 24.9449 54.1104 24.7433 54.6348 24.7479C55.1592 24.7524 55.6608 24.9628 56.0316 25.3336C56.4025 25.7044 56.6128 26.206 56.6174 26.7304C56.6219 27.2548 56.4203 27.76 56.056 28.1372L27.772 56.4212C27.3969 56.7962 26.8883 57.0068 26.358 57.0068C25.8277 57.0068 25.3191 56.7962 24.944 56.4212Z" fill="#D63C45"/>
<path fill-rule="evenodd" clip-rule="evenodd" d="M24.944 25.3092C25.3191 24.9343 25.8277 24.7236 26.358 24.7236C26.8883 24.7236 27.3969 24.9343 27.772 25.3092L56.056 53.5932C56.4203 53.9704 56.6219 54.4756 56.6174 55C56.6128 55.5244 56.4025 56.026 56.0316 56.3968C55.6608 56.7677 55.1592 56.978 54.6348 56.9826C54.1104 56.9871 53.6052 56.7855 53.228 56.4212L24.944 28.1372C24.5691 27.7622 24.3584 27.2535 24.3584 26.7232C24.3584 26.1929 24.5691 25.6843 24.944 25.3092Z" fill="#D63C45"/>
</g>
<defs>
<clipPath id="clip0_978_876">
<rect width="80" height="80" fill="white" transform="translate(0.5 0.865234)"/>
</clipPath>
</defs>
</svg>
