<svg width="81" height="81" viewBox="0 0 81 81" fill="none" xmlns="http://www.w3.org/2000/svg">
<path d="M40.478 4.86688C41.6586 4.86688 42.8213 4.94348 43.9028 5.12374C44.968 5.26331 46.0189 5.49552 47.0438 5.81772C48.0712 6.12866 49.0761 6.51621 50.0811 7.0029C51.0589 7.46705 52.0639 8.03486 53.0688 8.65223C54.7677 9.73376 56.4396 10.608 58.143 11.3065C61.4963 12.6486 65.0423 13.4473 68.6473 13.6723C70.4769 13.803 72.3561 13.8796 74.3118 13.8796V31.9051C74.3118 35.33 73.8747 38.5746 73.0005 41.6659C72.1607 44.7132 70.9674 47.6518 69.445 50.4218C67.9289 53.188 66.1351 55.7926 64.0914 58.1953C62.0163 60.6527 59.7695 62.9597 57.3679 65.0991C54.9345 67.2448 52.3715 69.2388 49.6935 71.07C47.0167 72.9267 44.3129 74.6526 41.6091 76.2208L40.5275 76.8652L39.446 76.2208C36.6665 74.6116 33.9515 72.8933 31.3075 71.07C28.6145 69.2595 26.0502 67.2644 23.6331 65.0991C21.233 62.9597 18.9877 60.6526 16.9141 58.1953C14.8759 55.7824 13.0741 53.1793 11.5335 50.4218C10.0371 47.6395 8.84503 44.7039 7.97799 41.6659C7.09821 38.4878 6.66446 35.2027 6.68917 31.9051V13.8796C8.64944 13.8796 10.5286 13.803 12.3582 13.6723C14.1592 13.5472 15.9486 13.2897 17.7118 12.9017C19.4377 12.5142 21.1636 12.0005 22.8626 11.3065C24.6255 10.595 26.3157 9.71518 27.9097 8.67927C29.8925 7.39045 31.9023 6.4396 33.8851 5.81321C36.0206 5.15858 38.2446 4.83933 40.478 4.86688ZM69.7784 18.3094C66.3672 18.1439 62.9878 17.5736 59.7112 16.6105C56.4519 15.6383 53.3475 14.2074 50.4911 12.361C49.0096 11.3885 47.4006 10.6257 45.7099 10.0943C44.021 9.58386 42.2647 9.33165 40.5005 9.34621C38.7232 9.33472 36.954 9.58681 35.2506 10.0943C33.5574 10.6084 31.9504 11.3724 30.4828 12.361C27.6215 14.2175 24.5091 15.6546 21.2403 16.6285C18.0452 17.5568 14.7015 18.1246 11.1955 18.3319V31.9277C11.1955 34.9154 11.5831 37.7724 12.3582 40.5258C13.1478 43.2553 14.2359 45.8894 15.6028 48.3804C16.986 50.8974 18.6163 53.2705 20.4697 55.4645C22.3488 57.6771 24.3542 59.7365 26.5172 61.6923C28.6803 63.6525 30.947 65.4551 33.3173 67.127C35.7102 68.8033 38.1076 70.322 40.5005 71.7099C42.9507 70.2835 45.3397 68.7545 47.6611 67.127C50.0471 65.4604 52.3259 63.6452 54.4838 61.6923C56.6469 59.7365 58.6567 57.6771 60.5359 55.4645C62.3894 53.2706 64.0197 50.8975 65.4027 48.3804C66.7635 45.8925 67.8355 43.2572 68.5978 40.5258C69.3964 37.7301 69.7939 34.8352 69.7784 31.9277V18.3094Z" fill="#41A83F"/>
<path fill-rule="evenodd" clip-rule="evenodd" d="M57.2778 26.0874L55.295 24.384L53.4654 24.5417L33.8176 47.7405L27.1256 38.187L25.3231 37.8806L23.2366 39.3722L22.9257 41.1747L31.5283 53.4591L32.5062 53.9999L34.5656 54.1261L35.6201 53.6664L57.4084 27.9125L57.2778 26.0874Z" fill="#41A83F"/>
</svg>
