<svg width="222" height="68" viewBox="0 0 222 68" fill="none" xmlns="http://www.w3.org/2000/svg">
<g clip-path="url(#clip0_801_402)">
<path d="M67.4 33.7C67.4 35.5 67.2 37.4 67 39.1C64.4 55.1 50.4 67.4 33.7 67.4C15.2 67.5 0 52.2 0 33.7C0 15.2 15.2 0 33.7 0V14.4C23 14.4 14.4 23 14.4 33.7C14.4 44.4 23.1 53 33.7 53C43.3 53 51.3 46 52.8 36.8C53 35.8 53 34.8 53 33.7H67.4V33.7Z" fill="url(#paint0_linear_801_402)"/>
<path d="M126.3 33.7V53H120.7V38.2999H112.7V53H107.1V33.7H126.3Z" fill="black"/>
<path d="M147.9 38.2999H141.4V53H135.8V38.2999H129.3V33.7H147.9V38.2999Z" fill="black"/>
<path d="M150.9 33.7H156.5V45.2L165.9 33.7H171V53H165.4V41.5L156.1 53H150.9V33.7Z" fill="black"/>
<path d="M195.2 53V41.4L189.4 51.0999H187L181.4 41.4V53H176.3V33.7H182.1L188.3 44.9L194.9 33.7H200.1L200.2 53H195.2Z" fill="black"/>
<path d="M215.1 33.4999C214.5 33.3999 213.8 33.3999 213.1 33.3999C211.5 33.3999 210 33.5999 208.6 33.9999C207.1 34.3999 205.9 34.9999 204.8 35.6999L206.8 39.5999C207.5 39.0999 208.3 38.5999 209.3 38.2999C210.3 37.9999 211.3 37.7999 212.3 37.7999C213.8 37.7999 214.9 38.0999 215.6 38.7999C216.3 39.4999 216.7 40.3999 216.7 41.5999H212.3C209.5 41.5999 207.4 42.0999 206 43.0999C204.6 44.0999 204 45.4999 204 47.2999C204 48.3999 204.3 49.3999 204.9 50.2999C205.5 51.1999 206.3 51.8999 207.4 52.3999C208.5 52.8999 209.8 53.1999 211.3 53.1999C214.2 53.1999 216.1 52.2999 217.2 50.4999V52.9999H222.4V41.9999C222.4 41.5999 222.4 41.1999 222.3 40.7999L215.1 33.4999ZM216.8 46.8999C216.5 47.7999 216 48.3999 215.2 48.8999C214.5 49.2999 213.6 49.5999 212.7 49.5999C211.7 49.5999 210.9 49.3999 210.4 48.9999C209.8 48.5999 209.6 47.9999 209.6 47.2999C209.6 45.7999 210.7 44.9999 213 44.9999H216.8V46.8999Z" fill="black"/>
<path d="M96.2 33.8999C95.1 33.5999 93.9 33.3999 92.7 33.3999C90.7 33.3999 88.8 33.7999 87.2 34.6999C85.6 35.4999 84.3 36.6999 83.4 38.1999C82.5 39.6999 82 41.3999 82 43.2999C82 45.1999 82.5 46.8999 83.4 48.3999C84.3 49.8999 85.6 51.0999 87.2 51.8999C88.8 52.6999 90.6 53.1999 92.7 53.1999C94.7 53.1999 96.5 52.7999 98.2 51.8999C99.8 51.0999 101.1 49.8999 102 48.3999C102.9 46.8999 103.4 45.1999 103.4 43.2999C103.4 42.3999 103.3 41.4999 103.1 40.5999L96.2 33.8999ZM96.3 47.1999C95.4 48.1999 94.2 48.6999 92.8 48.6999C91.4 48.6999 90.2 48.1999 89.3 47.1999C88.4 46.1999 87.9 44.8999 87.9 43.2999C87.9 41.6999 88.4 40.3999 89.3 39.3999C90.2 38.3999 91.4 37.8999 92.8 37.8999C94.2 37.8999 95.4 38.3999 96.3 39.3999C97.2 40.3999 97.7 41.6999 97.7 43.2999C97.6 44.9999 97.2 46.2999 96.3 47.1999Z" fill="black"/>
<path d="M33.7 0V33.7H67.4L33.7 0Z" fill="url(#paint1_linear_801_402)"/>
<path d="M53 33.7C53 34.8 52.9 35.7999 52.8 36.7999L33.7 33.7H53Z" fill="#BABCBE"/>
<path d="M67.4 33.7C67.4 35.5 67.2 37.3999 67 39.0999L52.8 36.7999C53 35.7999 53 34.8 53 33.7H67.4Z" fill="#981B1E"/>
</g>
<defs>
<linearGradient id="paint0_linear_801_402" x1="5.092" y1="21.6883" x2="60.136" y2="48.4239" gradientUnits="userSpaceOnUse">
<stop stop-color="#EE4036"/>
<stop offset="0.3774" stop-color="#EB3D35"/>
<stop offset="0.6619" stop-color="#E13531"/>
<stop offset="0.9153" stop-color="#D1262A"/>
<stop offset="1" stop-color="#CA2027"/>
</linearGradient>
<linearGradient id="paint1_linear_801_402" x1="34.1593" y1="30.3604" x2="48.8375" y2="18.3033" gradientUnits="userSpaceOnUse">
<stop offset="0.7274" stop-color="#F27B53"/>
<stop offset="0.8473" stop-color="#F16B3F"/>
<stop offset="1" stop-color="#F05A2A"/>
</linearGradient>
<clipPath id="clip0_801_402">
<rect width="222" height="68" fill="white"/>
</clipPath>
</defs>
</svg>
