<svg width="701" height="512" viewBox="0 0 701 512" fill="none" xmlns="http://www.w3.org/2000/svg">
<g opacity="0.5">
<path d="M441.17 157.329C443.981 165.908 448.436 173.588 454.393 180.065L409.274 243.102C386.428 223.456 369.984 196.55 363.792 165.908L441.17 157.329Z" fill="#EC3B33"/>
<path d="M487.312 77.3983C460.98 82.8564 441.03 105.034 438.423 132.25L361.145 140.779C361.145 139.9 361 139.026 361 138.147C361 65.7728 416.551 6.38202 487.312 0V77.3983Z" fill="#EC3B33"/>
<path d="M545.734 96.5347C537.09 87.0315 525.659 80.0952 512.541 77.3986V0.000366211C553.749 3.71572 589.674 25.4086 612.576 57.1939L545.734 96.5347Z" fill="#EC3B33"/>
<path d="M474.862 194.822C482.528 198.253 490.997 200.175 499.936 200.175C534.223 200.175 562.038 172.425 562.038 138.148C562.038 131.161 560.605 124.58 558.503 118.288L625.439 78.9168C633.973 96.8843 638.877 116.924 638.877 138.148C638.877 214.802 576.65 276.939 499.936 276.939C474.318 276.939 450.428 269.908 429.804 257.788L474.862 194.822Z" fill="#EC3B33"/>
</g>
<path d="M8.55629 400.11H0V410.951H8.55629V400.11Z" fill="#EC3B33"/>
<path d="M25.6606 371.26H17.1127V410.951H25.6606V371.26Z" fill="#EC3B33"/>
<path d="M42.7702 366.304H34.2141V410.951H42.7702V366.304Z" fill="#EC3B33"/>
<path d="M59.8801 370.784H51.3267V410.951H59.8801V370.784Z" fill="#EC3B33"/>
<path d="M76.9871 354.741H68.4363V410.951H76.9871V354.741Z" fill="#EC3B33"/>
<path d="M94.0969 360.127H85.5461V410.951H94.0969V360.127Z" fill="#EC3B33"/>
<path d="M111.207 349H102.65V410.951H111.207V349Z" fill="#EC3B33"/>
<path d="M128.316 385.823H119.763V410.951H128.316V385.823Z" fill="#EC3B33"/>
<path d="M145.424 398.162H136.87V410.951H145.424V398.162Z" fill="#EC3B33"/>
<path d="M94.1272 427.386H85.5737V417.678H94.1272V427.386Z" fill="#EC3B33"/>
<path d="M111.24 457.369H102.684V417.678H111.24V457.369Z" fill="#EC3B33"/>
<path d="M128.344 462.321H119.79V417.678H128.344V462.321Z" fill="#EC3B33"/>
<path d="M145.456 438.428H136.9V417.678H145.456V438.428Z" fill="#EC3B33"/>
<path d="M162.566 473.883H154.013V417.679H162.566V473.883Z" fill="#EC3B33"/>
<path d="M179.679 451.422H171.122V417.678H179.679V451.422Z" fill="#EC3B33"/>
<path d="M196.786 479.629H188.23V417.678H196.786V479.629Z" fill="#EC3B33"/>
<path d="M213.893 459.214H205.342V417.678H213.893V459.214Z" fill="#EC3B33"/>
<path d="M231 434.532H222.449V417.678H231V434.532Z" fill="#EC3B33"/>
<path opacity="0.5" d="M700.5 523L575.5 369H248.5L270.5 573L700.5 623.5V523Z" fill="#EC3B33"/>
<path d="M300.553 369.357C300.859 372.333 303.26 374.692 306.291 374.692H423.409C426.454 374.692 428.846 372.333 429.161 369.357H300.553Z" fill="#CCCCCC"/>
<path d="M197.275 368.306H541.185V155.52C541.185 150.714 537.297 146.756 532.439 146.756H197.275C192.409 146.756 188.492 150.714 188.492 155.52V368.306H197.275Z" fill="#474F59"/>
<path d="M197.275 368.306V369.061H541.185L541.718 368.839L541.936 368.306V155.52C541.936 150.301 537.718 146 532.439 146H197.275C191.987 146 187.737 150.297 187.737 155.52V368.306L187.959 368.839L188.492 369.061H197.275V368.306V367.55H189.238L189.243 155.52C189.252 151.135 192.826 147.52 197.275 147.511H532.439C536.87 147.52 540.421 151.131 540.43 155.52V367.55H532.439H197.275V368.306Z" fill="#30363D"/>
<path d="M210.369 167.844H519.351V346.73H210.369V167.844Z" fill="white"/>
<path d="M210.369 167.844V168.604H518.59V345.97H211.119L211.124 167.844H210.369V168.604V167.844H209.609V346.73L209.831 347.268L210.369 347.49H519.351L519.888 347.268L520.106 346.73V167.844L519.888 167.306L519.351 167.084H210.369L209.831 167.306L209.609 167.844H210.369Z" fill="#B2B2B2"/>
<path d="M573.717 369.357H429.161C428.846 372.333 426.454 374.692 423.409 374.692H306.291C303.26 374.692 300.859 372.333 300.553 369.357H155.983C155.932 370.062 155.761 370.739 155.761 371.462V377.816C155.761 388.309 164.257 388.926 174.796 388.926H554.914C565.384 388.926 573.954 388.309 573.954 377.816V371.462C573.954 370.739 573.782 370.062 573.717 369.357Z" fill="#E6E6E6"/>
<path d="M573.717 369.358V368.598H429.161L428.401 369.279C428.118 371.898 426.042 373.932 423.409 373.932H306.291C303.673 373.932 301.587 371.893 301.309 369.279L300.553 368.598H155.983L155.223 369.307C155.182 369.919 155.005 370.618 155.001 371.462V377.816C154.954 383.262 157.341 386.483 161.026 388.008C164.688 389.552 169.508 389.677 174.796 389.686H554.914C560.165 389.677 564.99 389.552 568.656 388.008C572.35 386.483 574.755 383.267 574.709 377.816V371.462C574.709 370.618 574.524 369.909 574.473 369.284L573.717 368.598V369.358L572.957 369.432C573.036 370.211 573.194 370.859 573.194 371.462V377.816C573.152 382.864 571.27 385.2 568.063 386.609C564.828 387.99 560.128 388.171 554.914 388.166H174.796C169.54 388.171 164.845 387.99 161.619 386.609C158.426 385.2 156.563 382.868 156.516 377.816V371.462C156.512 370.859 156.679 370.206 156.739 369.413L155.983 369.358V370.118H300.553V369.358L299.793 369.436C300.132 372.769 302.843 375.448 306.291 375.453H423.409C426.862 375.448 429.569 372.769 429.917 369.441L429.161 369.358V370.118H573.717V369.358L572.957 369.432L573.717 369.358Z" fill="#B2B2B2"/>
<path d="M403.475 169.345H518.118V345.734H403.475V169.345Z" fill="#F6F2F1"/>
<path d="M212.046 169.202H517.928V187.57H212.046V169.202Z" fill="#E6E6E6"/>
<path d="M402.571 169.202H517.927V187.57H402.571V169.202Z" fill="#F26C4F"/>
<path d="M225.005 317.554H269.244V314.518H225.005V317.554Z" fill="#B2B2B2"/>
<path d="M225.005 324.886H372.114V323.369H225.005V324.886Z" fill="#B2B2B2"/>
<path d="M225.005 332.978H337.534V331.463H225.005V332.978Z" fill="#B2B2B2"/>
<path d="M224.431 180.451H252.468V177.415H224.431V180.451Z" fill="#B2B2B2"/>
<path d="M259.952 180.451H288.008V177.415H259.952V180.451Z" fill="#B2B2B2"/>
<path d="M295.492 180.451H323.529V177.415H295.492V180.451Z" fill="#B2B2B2"/>
<path d="M331.014 180.451H359.063V177.415H331.014V180.451Z" fill="#B2B2B2"/>
<path d="M410.872 180.451H438.913V177.415H410.872V180.451Z" fill="white"/>
<path d="M458.578 216.199H492.594V213.165H458.578V216.199Z" fill="#B2B2B2"/>
<path d="M458.578 223.536H504.742V222.015H458.578V223.536Z" fill="#B2B2B2"/>
<path d="M458.578 231.619H498.651V230.101H458.578V231.619Z" fill="#B2B2B2"/>
<path d="M458.578 239.712H492.594V238.196H458.578V239.712Z" fill="#B2B2B2"/>
<path d="M458.578 277.685H492.594V274.651H458.578V277.685Z" fill="#B2B2B2"/>
<path d="M458.578 285.027H504.742V283.506H458.578V285.027Z" fill="#B2B2B2"/>
<path d="M458.578 293.119H498.651V291.6H458.578V293.119Z" fill="#B2B2B2"/>
<path d="M458.578 301.207H492.594V299.688H458.578V301.207Z" fill="#B2B2B2"/>
<path d="M430.76 229.028V209.279C420.707 209.923 412.744 217.942 412.744 227.777C412.744 238.043 421.388 246.353 432.048 246.353C442.277 246.353 450.616 238.697 451.288 229.028H430.76Z" fill="#F26C4F"/>
<path d="M450.356 224.361C450.356 216.699 443.9 210.484 435.928 210.484V224.361H450.356Z" fill="#66CDE1"/>
<path d="M440.169 290.96C439.779 292.146 439.154 293.207 438.333 294.102L444.59 302.82C447.756 300.104 450.041 296.378 450.898 292.146L440.169 290.96Z" fill="#F26C4F"/>
<path d="M433.763 279.919C437.411 280.665 440.187 283.738 440.544 287.492L451.269 288.678L451.288 288.308C451.288 278.31 443.58 270.102 433.763 269.217V279.919Z" fill="#596273"/>
<path d="M425.657 282.561C426.862 281.249 428.447 280.289 430.264 279.919V269.217C424.554 269.731 419.567 272.725 416.392 277.119L425.657 282.561Z" fill="#F26C4F"/>
<path d="M435.497 296.146C434.435 296.614 433.254 296.888 432.011 296.888C427.261 296.888 423.4 293.055 423.4 288.309C423.4 287.349 423.604 286.436 423.891 285.56L414.607 280.128C413.421 282.608 412.744 285.375 412.744 288.309C412.744 298.909 421.37 307.502 432.011 307.502C435.566 307.502 438.885 306.528 441.74 304.846L435.497 296.146Z" fill="#66CDE1"/>
<path d="M226.614 305.438H384.514V303.918H226.614V305.438Z" fill="#B2B2B2"/>
<path d="M225.854 304.679H227.369V225.812H225.854V304.679Z" fill="#B2B2B2"/>
<path d="M237.492 303.927H232.643V281.69H237.492V303.927Z" fill="#66CDE1"/>
<path d="M243.624 303.927H238.785V288.697H243.624V303.927Z" fill="#596273"/>
<path d="M249.751 303.927H244.917V258.877H249.751V303.927Z" fill="#F26C4F"/>
<path d="M262.492 303.927H257.644V266.075H262.492V303.927Z" fill="#66CDE1"/>
<path d="M268.624 303.927H263.79V274.214H268.624V303.927Z" fill="#596273"/>
<path d="M274.766 303.927H269.927V270.807H274.766V303.927Z" fill="#F26C4F"/>
<path d="M287.502 303.927H282.658V273.463H287.502V303.927Z" fill="#66CDE1"/>
<path d="M293.634 303.927H288.795V280.183H293.634V303.927Z" fill="#596273"/>
<path d="M299.77 303.927H294.927V258.877H299.77V303.927Z" fill="#F26C4F"/>
<path d="M312.507 303.927H307.663V237.408H312.507V303.927Z" fill="#66CDE1"/>
<path d="M318.638 303.927H313.8V257.755H318.638V303.927Z" fill="#596273"/>
<path d="M324.78 303.927H319.941V245.26H324.78V303.927Z" fill="#F26C4F"/>
<path d="M337.512 303.927H332.668V283.395H337.512V303.927Z" fill="#66CDE1"/>
<path d="M343.648 303.927H338.809V294.37H343.648V303.927Z" fill="#596273"/>
<path d="M349.785 303.927H344.941V282.732H349.785V303.927Z" fill="#F26C4F"/>
<path d="M362.517 303.927H357.673V266.075H362.517V303.927Z" fill="#66CDE1"/>
<path d="M368.649 303.927H363.815V237.876H368.649V303.927Z" fill="#596273"/>
<path d="M374.79 303.927H369.946V255.762H374.79V303.927Z" fill="#F26C4F"/>
<path d="M235.197 215.764H226.614V207.189H235.197V215.764Z" fill="#66CDE1"/>
<path d="M239.299 212.232H261.671V210.713H239.299V212.232Z" fill="#B2B2B2"/>
<path d="M278.83 215.764H270.251V207.189H278.83V215.764Z" fill="#596273"/>
<path d="M282.927 212.232H305.295V210.713H282.927V212.232Z" fill="#B2B2B2"/>
<path d="M322.462 215.764H313.874V207.189H322.462V215.764Z" fill="#F26C4F"/>
<path d="M326.56 212.232H348.938V210.713H326.56V212.232Z" fill="#B2B2B2"/>
<path d="M358.077 215.194V207.76H365.52V215.194H358.077Z" fill="white"/>
<path d="M366.09 207.189H357.506V215.764H366.09V207.189ZM364.955 208.325V214.628H358.642V208.325H364.955Z" fill="#2C5871"/>
<path d="M370.187 212.232H392.57V210.713H370.187V212.232Z" fill="#B2B2B2"/>
<path d="M368.044 120.408C378.913 125.806 383.576 138.532 378.451 148.831C373.329 159.133 360.357 163.107 349.488 157.709C338.618 152.315 333.959 139.587 339.081 129.288C344.208 118.987 357.174 115.013 368.044 120.408Z" fill="#F4DA80"/>
<path d="M367.785 120.933C378.323 126.163 383.177 137.828 378.624 146.981C374.066 156.142 361.83 159.322 351.293 154.091C340.754 148.854 335.898 137.194 340.456 128.034C345.012 118.88 357.245 115.699 367.785 120.933Z" fill="#F0BF41"/>
<path d="M366.029 124.451C374.33 128.571 378.151 137.759 374.568 144.971C370.981 152.184 361.342 154.688 353.042 150.566C344.744 146.446 340.925 137.263 344.511 130.051C348.096 122.838 357.731 120.336 366.029 124.451Z" fill="#F4DA80"/>
<path fill-rule="evenodd" clip-rule="evenodd" d="M350.36 134.033C349.855 134.724 350.007 135.7 350.698 136.205L358.233 141.708L357.316 142.963C357.061 143.312 357.139 143.797 357.485 144.05C357.831 144.302 358.317 144.229 358.571 143.88L359.488 142.625L360.744 143.542L359.827 144.797C359.573 145.146 359.651 145.631 359.996 145.884C360.342 146.136 360.829 146.063 361.083 145.714L362 144.459L365.139 146.751C365.485 147.004 365.971 146.93 366.226 146.582C366.48 146.234 366.402 145.748 366.056 145.496L360.406 141.369L363.157 137.602C364.674 135.524 364.218 132.6 362.141 131.083L359.629 129.249C357.552 127.732 354.628 128.188 353.111 130.265L350.36 134.033ZM362.578 141.03C362.324 141.378 362.402 141.864 362.748 142.117C363.093 142.369 363.58 142.296 363.834 141.947L366.585 138.18C366.84 137.832 366.762 137.346 366.416 137.094C366.07 136.841 365.584 136.915 365.329 137.263L362.578 141.03ZM351.615 134.95L354.367 131.182C355.379 129.797 357.326 129.493 358.712 130.505L361.224 132.339C362.609 133.351 362.913 135.299 361.901 136.685L359.15 140.452L351.615 134.95Z" fill="#F0BF41"/>
<path d="M528.991 214.145C538.079 203.937 552.552 201.979 561.318 209.77C570.078 217.561 569.82 232.149 560.728 242.353C551.641 252.556 537.171 254.516 528.405 246.726C519.642 238.937 519.903 224.348 528.991 214.145Z" fill="#F4DA80"/>
<path d="M529.423 214.526C538.23 204.635 551.504 202.055 559.053 208.767C566.613 215.484 565.595 228.951 556.78 238.84C547.972 248.738 534.706 251.314 527.148 244.598C519.598 237.883 520.612 224.42 529.423 214.526Z" fill="#F0BF41"/>
<path d="M531.795 216.333C538.731 208.54 549.178 206.51 555.131 211.798C561.079 217.089 560.279 227.692 553.341 235.485C546.405 243.27 535.956 245.301 530.005 240.014C524.053 234.725 524.855 224.124 531.795 216.333Z" fill="#F4DA80"/>
<path fill-rule="evenodd" clip-rule="evenodd" d="M550.533 216.868C549.932 216.114 548.826 215.99 548.072 216.591L539.857 223.143L538.765 221.774C538.462 221.395 537.911 221.335 537.534 221.636C537.157 221.936 537.093 222.487 537.396 222.866L538.488 224.235L537.119 225.327L536.027 223.958C535.724 223.579 535.173 223.519 534.796 223.82C534.419 224.12 534.355 224.671 534.657 225.05L535.75 226.419L532.327 229.149C531.95 229.45 531.885 230 532.188 230.38C532.491 230.76 533.042 230.819 533.419 230.519L539.58 225.605L542.856 229.712C544.662 231.977 547.974 232.35 550.239 230.543L552.978 228.359C555.243 226.553 555.616 223.241 553.809 220.976L550.533 216.868ZM539.303 228.066C539 227.686 538.449 227.626 538.072 227.927C537.695 228.228 537.631 228.778 537.934 229.158L541.21 233.265C541.512 233.645 542.063 233.705 542.44 233.404C542.817 233.103 542.882 232.553 542.579 232.173L539.303 228.066ZM549.164 217.96L552.44 222.068C553.645 223.579 553.396 225.785 551.886 226.99L549.147 229.174C547.636 230.379 545.43 230.131 544.225 228.62L540.949 224.513L549.164 217.96Z" fill="#F0BF41"/>
<path d="M515.046 328.498C515.046 340.921 504.967 351 492.526 351C480.083 351 470 340.921 470 328.498C470 316.074 480.083 306 492.526 306C504.967 306 515.046 316.074 515.046 328.498Z" fill="#F4DA80"/>
<path d="M514.36 328.498C514.36 340.543 504.587 350.312 492.526 350.312C480.468 350.312 470.688 340.543 470.688 328.498C470.688 316.449 480.468 306.689 492.526 306.689C504.587 306.689 514.36 316.449 514.36 328.498Z" fill="#F0BF41"/>
<path d="M509.72 328.498C509.72 337.983 502.022 345.677 492.526 345.677C483.03 345.677 475.328 337.983 475.328 328.498C475.328 319.015 483.03 311.322 492.526 311.322C502.022 311.322 509.72 319.015 509.72 328.498Z" fill="#F4DA80"/>
<path fill-rule="evenodd" clip-rule="evenodd" d="M491.048 316.478C490.126 316.336 489.258 316.972 489.115 317.894L487.565 327.941L485.89 327.682C485.426 327.61 484.995 327.929 484.924 328.39C484.853 328.851 485.168 329.285 485.632 329.356L487.306 329.615L487.048 331.289L485.374 331.031C484.909 330.959 484.478 331.278 484.407 331.739C484.336 332.2 484.651 332.634 485.115 332.705L486.789 332.964L486.143 337.15C486.072 337.611 486.387 338.044 486.851 338.116C487.316 338.188 487.747 337.869 487.818 337.408L488.981 329.873L494.004 330.649C496.774 331.076 499.375 329.171 499.803 326.401L500.319 323.052C500.747 320.282 498.841 317.681 496.072 317.253L491.048 316.478ZM490.397 331.806C489.932 331.735 489.501 332.053 489.43 332.514C489.359 332.975 489.674 333.409 490.138 333.481L495.162 334.256C495.626 334.328 496.057 334.009 496.128 333.548C496.199 333.087 495.884 332.653 495.42 332.582L490.397 331.806ZM490.79 318.153L495.813 318.928C497.661 319.213 498.93 320.946 498.645 322.794L498.128 326.143C497.843 327.99 496.11 329.26 494.262 328.975L489.239 328.199L490.79 318.153Z" fill="#F0BF41"/>
<path d="M527 330.998C527 344.628 515.942 355.686 502.292 355.686C488.64 355.686 477.578 344.628 477.578 330.998C477.578 317.366 488.64 306.314 502.292 306.314C515.942 306.314 527 317.366 527 330.998Z" fill="#F4DA80"/>
<path d="M526.248 330.998C526.248 344.213 515.526 354.931 502.292 354.931C489.063 354.931 478.333 344.213 478.333 330.998C478.333 317.779 489.063 307.071 502.292 307.071C515.526 307.071 526.248 317.779 526.248 330.998Z" fill="#F0BF41"/>
<path d="M521.157 330.998C521.157 341.404 512.711 349.845 502.292 349.845C491.874 349.845 483.423 341.404 483.423 330.998C483.423 320.594 491.874 312.153 502.292 312.153C512.711 312.153 521.157 320.594 521.157 330.998Z" fill="#F4DA80"/>
<path fill-rule="evenodd" clip-rule="evenodd" d="M500.671 317.81C499.659 317.654 498.707 318.352 498.551 319.364L496.849 330.386L495.012 330.103C494.503 330.024 494.03 330.374 493.952 330.879C493.874 331.385 494.219 331.861 494.729 331.94L496.566 332.223L496.282 334.06L494.445 333.777C493.936 333.698 493.463 334.048 493.385 334.554C493.307 335.059 493.652 335.535 494.162 335.614L495.999 335.897L495.29 340.49C495.212 340.996 495.557 341.472 496.066 341.55C496.576 341.629 497.049 341.28 497.127 340.774L498.403 332.507L503.914 333.357C506.953 333.827 509.807 331.736 510.276 328.697L510.843 325.023C511.312 321.984 509.221 319.13 506.182 318.661L500.671 317.81ZM499.956 334.627C499.447 334.549 498.974 334.898 498.896 335.404C498.818 335.91 499.163 336.386 499.673 336.465L505.184 337.315C505.693 337.394 506.166 337.044 506.244 336.538C506.322 336.032 505.977 335.557 505.467 335.478L499.956 334.627ZM500.387 319.648L505.899 320.498C507.926 320.811 509.319 322.712 509.006 324.739L508.439 328.414C508.126 330.441 506.225 331.834 504.197 331.521L498.686 330.67L500.387 319.648Z" fill="#F0BF41"/>
<path d="M538.443 335.193C538.443 349.656 526.709 361.39 512.225 361.39C497.739 361.39 486 349.656 486 335.193C486 320.728 497.739 309 512.225 309C526.709 309 538.443 320.728 538.443 335.193Z" fill="#F4DA80"/>
<path d="M537.645 335.193C537.645 349.216 526.268 360.589 512.225 360.589C498.187 360.589 486.801 349.216 486.801 335.193C486.801 321.165 498.187 309.803 512.225 309.803C526.268 309.803 537.645 321.165 537.645 335.193Z" fill="#F0BF41"/>
<path d="M532.243 335.193C532.243 346.236 523.281 355.192 512.225 355.192C501.17 355.192 492.203 346.236 492.203 335.193C492.203 324.153 501.17 315.196 512.225 315.196C523.281 315.196 532.243 324.153 532.243 335.193Z" fill="#F4DA80"/>
<path fill-rule="evenodd" clip-rule="evenodd" d="M510.505 321.199C509.431 321.033 508.42 321.774 508.255 322.847L506.449 334.544L504.5 334.243C503.959 334.159 503.458 334.53 503.375 335.067C503.292 335.604 503.658 336.109 504.199 336.192L506.148 336.493L505.847 338.442L503.898 338.141C503.357 338.058 502.856 338.429 502.773 338.966C502.69 339.503 503.057 340.007 503.597 340.091L505.547 340.392L504.794 345.265C504.712 345.802 505.078 346.307 505.619 346.39C506.159 346.474 506.661 346.103 506.744 345.566L508.098 336.794L513.946 337.697C517.171 338.194 520.199 335.976 520.697 332.751L521.298 328.852C521.796 325.627 519.578 322.599 516.353 322.102L510.505 321.199ZM509.746 339.044C509.206 338.961 508.704 339.332 508.621 339.868C508.538 340.405 508.905 340.91 509.445 340.994L515.293 341.896C515.834 341.98 516.336 341.609 516.419 341.072C516.501 340.535 516.135 340.03 515.594 339.947L509.746 339.044ZM510.204 323.149L516.052 324.051C518.203 324.383 519.68 326.4 519.348 328.551L518.747 332.45C518.415 334.601 516.397 336.079 514.246 335.746L508.399 334.844L510.204 323.149Z" fill="#F0BF41"/>
</svg>
