<svg width="40" height="41" viewBox="0 0 40 41" fill="none" xmlns="http://www.w3.org/2000/svg">
<g clip-path="url(#clip0_972_2361)">
<path d="M5 35.8652V5.86523C5 4.53915 5.52678 3.26738 6.46447 2.3297C7.40215 1.39202 8.67392 0.865234 10 0.865234H30C31.3261 0.865234 32.5979 1.39202 33.5355 2.3297C34.4732 3.26738 35 4.53915 35 5.86523V33.3652C35 34.0283 34.7366 34.6642 34.2678 35.133C33.7989 35.6018 33.163 35.8652 32.5 35.8652H7.5C7.5 36.5283 7.76339 37.1642 8.23223 37.633C8.70107 38.1018 9.33696 38.3652 10 38.3652H33.75C34.0815 38.3652 34.3995 38.4969 34.6339 38.7313C34.8683 38.9658 35 39.2837 35 39.6152C35 39.9468 34.8683 40.2647 34.6339 40.4991C34.3995 40.7335 34.0815 40.8652 33.75 40.8652H10C8.67392 40.8652 7.40215 40.3384 6.46447 39.4008C5.52678 38.4631 5 37.1913 5 35.8652ZM32.5 5.86523C32.5 5.20219 32.2366 4.56631 31.7678 4.09747C31.2989 3.62863 30.663 3.36523 30 3.36523H10C9.33696 3.36523 8.70107 3.62863 8.23223 4.09747C7.76339 4.56631 7.5 5.20219 7.5 5.86523V33.3652H32.5V5.86523ZM12.5 23.9902C12.5012 23.8059 12.5273 23.6226 12.5775 23.4452C12.94 23.7202 13.32 23.9702 13.71 24.1952C15.6273 25.2857 17.7943 25.861 20 25.8652C22.455 25.8652 24.6575 25.1327 26.29 24.1927C26.68 23.9677 27.06 23.7177 27.4225 23.4452C27.4725 23.6202 27.5 23.8002 27.5 23.9902C27.5 24.7402 27.045 25.3652 26.675 25.7652C26.1962 26.2645 25.6461 26.6899 25.0425 27.0277C23.5047 27.9 21.7679 28.3606 20 28.3652C18.2321 28.3607 16.4952 27.9001 14.9575 27.0277C14.3532 26.6908 13.8022 26.2662 13.3225 25.7677C12.955 25.3652 12.5 24.7402 12.5 23.9902ZM12.5775 18.4452C12.5263 18.6224 12.5002 18.8058 12.5 18.9902C12.5 19.7402 12.955 20.3677 13.325 20.7652C13.8038 21.2644 14.3539 21.6899 14.9575 22.0277C16.4953 22.9 18.2321 23.3606 20 23.3652C21.97 23.3652 23.745 22.7752 25.0425 22.0277C25.6925 21.6527 26.255 21.2227 26.6775 20.7677C27.045 20.3677 27.5 19.7427 27.5 18.9927C27.5 18.8075 27.4739 18.6232 27.4225 18.4452C27.0611 18.7187 26.6828 18.9692 26.29 19.1952C24.3727 20.2858 22.2057 20.8611 20 20.8652C17.7941 20.8604 15.627 20.2842 13.71 19.1927C13.317 18.9678 12.9388 18.7181 12.5775 18.4452ZM15 13.3652C15 12.8327 15.315 12.2452 16.2075 11.7277C17.1025 11.2077 18.435 10.8652 20 10.8652C21.565 10.8652 22.8975 11.2077 23.7925 11.7277C24.685 12.2452 25 12.8327 25 13.3652C25 13.8977 24.685 14.4852 23.7925 15.0027C22.8975 15.5227 21.565 15.8652 20 15.8652C18.435 15.8652 17.1025 15.5227 16.2075 15.0027C15.315 14.4852 15 13.8977 15 13.3652ZM20 8.36523C18.1125 8.36523 16.32 8.77273 14.9525 9.56523C13.585 10.3602 12.5 11.6477 12.5 13.3652C12.5 15.0827 13.585 16.3702 14.9525 17.1652C16.32 17.9577 18.1125 18.3652 20 18.3652C21.8875 18.3652 23.68 17.9577 25.0475 17.1652C26.415 16.3702 27.5 15.0827 27.5 13.3652C27.5 11.6477 26.415 10.3602 25.0475 9.56523C23.68 8.77273 21.8875 8.36523 20 8.36523Z" fill="#EC3B33"/>
</g>
<defs>
<clipPath id="clip0_972_2361">
<rect width="40" height="40" fill="white" transform="translate(0 0.865234)"/>
</clipPath>
</defs>
</svg>
