<svg width="81" height="80" viewBox="0 0 81 80" fill="none" xmlns="http://www.w3.org/2000/svg">
<path d="M77 2.5H29.5C29.1685 2.5 28.8505 2.6317 28.6161 2.86612C28.3817 3.10054 28.25 3.41848 28.25 3.75V17.5H30.75V5H75.75V52.5H64.5C64.1685 52.5 63.8505 52.6317 63.6161 52.8661C63.3817 53.1005 63.25 53.4185 63.25 53.75V65H43.25V67.5H64.5C64.8314 67.4992 65.149 67.3676 65.3838 67.1338L75.75 56.7675V70H43.25V72.5H77C77.3315 72.5 77.6495 72.3683 77.8839 72.1339C78.1183 71.8995 78.25 71.5815 78.25 71.25V3.75C78.25 3.41848 78.1183 3.10054 77.8839 2.86612C77.6495 2.6317 77.3315 2.5 77 2.5ZM65.75 63.2325V55H73.9825L65.75 63.2325Z" fill="white"/>
<path fill-rule="evenodd" clip-rule="evenodd" d="M61.75 9C60.6484 9 59.75 9.89844 59.75 11V23H57.75C57.1953 23 56.75 23.4492 56.75 24C56.75 24.5508 57.1953 25 57.75 25H59.75V27H57.75C57.1953 27 56.75 27.4492 56.75 28C56.75 28.5508 57.1953 29 57.75 29H59.75V34C59.75 34.5508 60.1953 35 60.75 35C61.3047 35 61.75 34.5508 61.75 34V25H67.75C71.0586 25 73.75 22.3086 73.75 19V15C73.75 11.6914 71.0586 9 67.75 9H61.75ZM63.75 27C63.1953 27 62.75 27.4492 62.75 28C62.75 28.5508 63.1953 29 63.75 29H69.75C70.3047 29 70.75 28.5508 70.75 28C70.75 27.4492 70.3047 27 69.75 27H63.75ZM61.75 11H67.75C69.957 11 71.75 12.793 71.75 15V19C71.75 21.207 69.957 23 67.75 23H61.75V11Z" fill="white"/>
<path d="M59.75 23V23.25H60V23H59.75ZM59.75 25H60V24.75H59.75V25ZM59.75 27V27.25H60V27H59.75ZM59.75 29H60V28.75H59.75V29ZM61.75 25V24.75H61.5V25H61.75ZM61.75 11V10.75H61.5V11H61.75ZM61.75 23H61.5V23.25H61.75V23ZM60 11C60 10.0365 60.7865 9.25 61.75 9.25V8.75C60.5104 8.75 59.5 9.76037 59.5 11H60ZM60 23V11H59.5V23H60ZM57.75 23.25H59.75V22.75H57.75V23.25ZM57 24C57 23.5867 57.334 23.25 57.75 23.25V22.75C57.0566 22.75 56.5 23.3118 56.5 24H57ZM57.75 24.75C57.334 24.75 57 24.4133 57 24H56.5C56.5 24.6882 57.0566 25.25 57.75 25.25V24.75ZM59.75 24.75H57.75V25.25H59.75V24.75ZM60 27V25H59.5V27H60ZM57.75 27.25H59.75V26.75H57.75V27.25ZM57 28C57 27.5867 57.334 27.25 57.75 27.25V26.75C57.0566 26.75 56.5 27.3118 56.5 28H57ZM57.75 28.75C57.334 28.75 57 28.4133 57 28H56.5C56.5 28.6882 57.0566 29.25 57.75 29.25V28.75ZM59.75 28.75H57.75V29.25H59.75V28.75ZM60 34V29H59.5V34H60ZM60.75 34.75C60.334 34.75 60 34.4133 60 34H59.5C59.5 34.6882 60.0566 35.25 60.75 35.25V34.75ZM61.5 34C61.5 34.4133 61.166 34.75 60.75 34.75V35.25C61.4434 35.25 62 34.6882 62 34H61.5ZM61.5 25V34H62V25H61.5ZM67.75 24.75H61.75V25.25H67.75V24.75ZM73.5 19C73.5 22.1705 70.9205 24.75 67.75 24.75V25.25C71.1967 25.25 74 22.4467 74 19H73.5ZM73.5 15V19H74V15H73.5ZM67.75 9.25C70.9205 9.25 73.5 11.8295 73.5 15H74C74 11.5533 71.1967 8.75 67.75 8.75V9.25ZM61.75 9.25H67.75V8.75H61.75V9.25ZM63 28C63 27.5867 63.334 27.25 63.75 27.25V26.75C63.0566 26.75 62.5 27.3118 62.5 28H63ZM63.75 28.75C63.334 28.75 63 28.4133 63 28H62.5C62.5 28.6882 63.0566 29.25 63.75 29.25V28.75ZM69.75 28.75H63.75V29.25H69.75V28.75ZM70.5 28C70.5 28.4133 70.166 28.75 69.75 28.75V29.25C70.4434 29.25 71 28.6882 71 28H70.5ZM69.75 27.25C70.166 27.25 70.5 27.5867 70.5 28H71C71 27.3118 70.4434 26.75 69.75 26.75V27.25ZM63.75 27.25H69.75V26.75H63.75V27.25ZM67.75 10.75H61.75V11.25H67.75V10.75ZM72 15C72 12.6549 70.0951 10.75 67.75 10.75V11.25C69.819 11.25 71.5 12.931 71.5 15H72ZM72 19V15H71.5V19H72ZM67.75 23.25C70.0951 23.25 72 21.3451 72 19H71.5C71.5 21.069 69.819 22.75 67.75 22.75V23.25ZM61.75 23.25H67.75V22.75H61.75V23.25ZM61.5 11V23H62V11H61.5Z" fill="white"/>
<path d="M54.5 15H34.5V17.5H54.5V15Z" fill="white"/>
<path d="M54.5 8.75H34.5V11.25H54.5V8.75Z" fill="white"/>
<path d="M54.25 21.25H43.25V23.75H54.25V21.25Z" fill="white"/>
<path d="M54.25 27.5H43.25V30H54.25V27.5Z" fill="white"/>
<path d="M54.25 33.75H43.25V36.25H54.25V33.75Z" fill="white"/>
<path d="M72 40H43.25V42.5H72V40Z" fill="white"/>
<path d="M72 46.25H43.25V48.75H72V46.25Z" fill="white"/>
<path d="M60.75 52.5H43.25V55H60.75V52.5Z" fill="white"/>
<path d="M60.75 58.75H43.25V61.25H60.75V58.75Z" fill="white"/>
<path d="M8.25 77.5H35.75C37.0761 77.5 38.3479 76.9732 39.2855 76.0355C40.2232 75.0978 40.75 73.8261 40.75 72.5V25C40.75 23.6739 40.2232 22.4021 39.2855 21.4644C38.3479 20.5268 37.0761 20 35.75 20H25.75V3.74997C25.7501 3.53688 25.6957 3.3273 25.592 3.14113C25.4883 2.95497 25.3388 2.7984 25.1575 2.68631C24.9763 2.57421 24.7694 2.51031 24.5566 2.50067C24.3437 2.49103 24.1319 2.53597 23.9412 2.63122L22 3.60247L20.0588 2.63122C19.8853 2.54452 19.694 2.49939 19.5 2.49939C19.306 2.49939 19.1147 2.54452 18.9413 2.63122L17 3.60247L15.0587 2.63122C14.8853 2.54452 14.694 2.49939 14.5 2.49939C14.306 2.49939 14.1147 2.54452 13.9413 2.63122L12 3.60247L10.0588 2.63122C9.86813 2.53597 9.65632 2.49103 9.44345 2.50067C9.23057 2.51031 9.02369 2.57421 8.84246 2.68631C8.66123 2.7984 8.51167 2.95497 8.40797 3.14113C8.30428 3.3273 8.2499 3.53688 8.25 3.74997V20C6.92392 20 5.65215 20.5268 4.71447 21.4644C3.77678 22.4021 3.25 23.6739 3.25 25V72.5C3.25 73.8261 3.77678 75.0978 4.71447 76.0355C5.65215 76.9732 6.92392 77.5 8.25 77.5ZM10.75 5.77247L11.4413 6.11872C11.6147 6.20542 11.806 6.25056 12 6.25056C12.194 6.25055 12.3853 6.20542 12.5587 6.11872L14.5 5.14747L16.4413 6.11872C16.6147 6.20542 16.806 6.25056 17 6.25056C17.194 6.25055 17.3853 6.20542 17.5587 6.11872L19.5 5.14747L21.4412 6.11872C21.6147 6.20542 21.806 6.25056 22 6.25056C22.194 6.25056 22.3853 6.20542 22.5588 6.11872L23.25 5.77247V23.75H10.75V5.77247ZM5.75 25C5.75 24.3369 6.01339 23.701 6.48223 23.2322C6.95107 22.7634 7.58696 22.5 8.25 22.5V25C8.25 25.3315 8.3817 25.6494 8.61612 25.8839C8.85054 26.1183 9.16848 26.25 9.5 26.25H24.5C24.8315 26.25 25.1495 26.1183 25.3839 25.8839C25.6183 25.6494 25.75 25.3315 25.75 25V22.5H35.75C36.413 22.5 37.0489 22.7634 37.5178 23.2322C37.9866 23.701 38.25 24.3369 38.25 25V72.5C38.25 73.163 37.9866 73.7989 37.5178 74.2677C37.0489 74.7366 36.413 75 35.75 75H8.25C7.58696 75 6.95107 74.7366 6.48223 74.2677C6.01339 73.7989 5.75 73.163 5.75 72.5V25Z" fill="white"/>
<path d="M9.5 42.5H34.5C34.8315 42.5 35.1495 42.3683 35.3839 42.1339C35.6183 41.8995 35.75 41.5815 35.75 41.25V31.25C35.75 30.9185 35.6183 30.6005 35.3839 30.3661C35.1495 30.1317 34.8315 30 34.5 30H9.5C9.16848 30 8.85054 30.1317 8.61612 30.3661C8.3817 30.6005 8.25 30.9185 8.25 31.25V41.25C8.25 41.5815 8.3817 41.8995 8.61612 42.1339C8.85054 42.3683 9.16848 42.5 9.5 42.5ZM10.75 32.5H33.25V40H10.75V32.5Z" fill="white"/>
<path d="M9.5 52.5H14.5C14.8315 52.5 15.1495 52.3683 15.3839 52.1339C15.6183 51.8995 15.75 51.5815 15.75 51.25V46.25C15.75 45.9185 15.6183 45.6005 15.3839 45.3661C15.1495 45.1317 14.8315 45 14.5 45H9.5C9.16848 45 8.85054 45.1317 8.61612 45.3661C8.3817 45.6005 8.25 45.9185 8.25 46.25V51.25C8.25 51.5815 8.3817 51.8995 8.61612 52.1339C8.85054 52.3683 9.16848 52.5 9.5 52.5ZM10.75 47.5H13.25V50H10.75V47.5Z" fill="white"/>
<path d="M24.5 45H19.5C19.1685 45 18.8505 45.1317 18.6161 45.3661C18.3817 45.6005 18.25 45.9185 18.25 46.25V51.25C18.25 51.5815 18.3817 51.8995 18.6161 52.1339C18.8505 52.3683 19.1685 52.5 19.5 52.5H24.5C24.8315 52.5 25.1495 52.3683 25.3839 52.1339C25.6183 51.8995 25.75 51.5815 25.75 51.25V46.25C25.75 45.9185 25.6183 45.6005 25.3839 45.3661C25.1495 45.1317 24.8315 45 24.5 45ZM23.25 50H20.75V47.5H23.25V50Z" fill="white"/>
<path d="M34.5 45H29.5C29.1685 45 28.8505 45.1317 28.6161 45.3661C28.3817 45.6005 28.25 45.9185 28.25 46.25V51.25C28.25 51.5815 28.3817 51.8995 28.6161 52.1339C28.8505 52.3683 29.1685 52.5 29.5 52.5H34.5C34.8315 52.5 35.1495 52.3683 35.3839 52.1339C35.6183 51.8995 35.75 51.5815 35.75 51.25V46.25C35.75 45.9185 35.6183 45.6005 35.3839 45.3661C35.1495 45.1317 34.8315 45 34.5 45ZM33.25 50H30.75V47.5H33.25V50Z" fill="white"/>
<path d="M9.5 62.5H14.5C14.8315 62.5 15.1495 62.3683 15.3839 62.1339C15.6183 61.8995 15.75 61.5815 15.75 61.25V56.25C15.75 55.9185 15.6183 55.6005 15.3839 55.3661C15.1495 55.1317 14.8315 55 14.5 55H9.5C9.16848 55 8.85054 55.1317 8.61612 55.3661C8.3817 55.6005 8.25 55.9185 8.25 56.25V61.25C8.25 61.5815 8.3817 61.8995 8.61612 62.1339C8.85054 62.3683 9.16848 62.5 9.5 62.5ZM10.75 57.5H13.25V60H10.75V57.5Z" fill="white"/>
<path d="M24.5 55H19.5C19.1685 55 18.8505 55.1317 18.6161 55.3661C18.3817 55.6005 18.25 55.9185 18.25 56.25V61.25C18.25 61.5815 18.3817 61.8995 18.6161 62.1339C18.8505 62.3683 19.1685 62.5 19.5 62.5H24.5C24.8315 62.5 25.1495 62.3683 25.3839 62.1339C25.6183 61.8995 25.75 61.5815 25.75 61.25V56.25C25.75 55.9185 25.6183 55.6005 25.3839 55.3661C25.1495 55.1317 24.8315 55 24.5 55ZM23.25 60H20.75V57.5H23.25V60Z" fill="white"/>
<path d="M34.5 55H29.5C29.1685 55 28.8505 55.1317 28.6161 55.3661C28.3817 55.6005 28.25 55.9185 28.25 56.25V71.25C28.25 71.5815 28.3817 71.8995 28.6161 72.1339C28.8505 72.3683 29.1685 72.5 29.5 72.5H34.5C34.8315 72.5 35.1495 72.3683 35.3839 72.1339C35.6183 71.8995 35.75 71.5815 35.75 71.25V56.25C35.75 55.9185 35.6183 55.6005 35.3839 55.3661C35.1495 55.1317 34.8315 55 34.5 55ZM33.25 70H30.75V57.5H33.25V70Z" fill="white"/>
<path d="M9.5 72.5H14.5C14.8315 72.5 15.1495 72.3683 15.3839 72.1339C15.6183 71.8995 15.75 71.5815 15.75 71.25V66.25C15.75 65.9185 15.6183 65.6005 15.3839 65.3661C15.1495 65.1317 14.8315 65 14.5 65H9.5C9.16848 65 8.85054 65.1317 8.61612 65.3661C8.3817 65.6005 8.25 65.9185 8.25 66.25V71.25C8.25 71.5815 8.3817 71.8995 8.61612 72.1339C8.85054 72.3683 9.16848 72.5 9.5 72.5ZM10.75 67.5H13.25V70H10.75V67.5Z" fill="white"/>
<path d="M24.5 65H19.5C19.1685 65 18.8505 65.1317 18.6161 65.3661C18.3817 65.6005 18.25 65.9185 18.25 66.25V71.25C18.25 71.5815 18.3817 71.8995 18.6161 72.1339C18.8505 72.3683 19.1685 72.5 19.5 72.5H24.5C24.8315 72.5 25.1495 72.3683 25.3839 72.1339C25.6183 71.8995 25.75 71.5815 25.75 71.25V66.25C25.75 65.9185 25.6183 65.6005 25.3839 65.3661C25.1495 65.1317 24.8315 65 24.5 65ZM23.25 70H20.75V67.5H23.25V70Z" fill="white"/>
<path d="M30.75 35H28.25V37.5H30.75V35Z" fill="white"/>
<path d="M25.75 35H23.25V37.5H25.75V35Z" fill="white"/>
<path d="M20.75 35H18.25V37.5H20.75V35Z" fill="white"/>
<path d="M20.75 8.75H13.25V11.25H20.75V8.75Z" fill="white"/>
<path d="M20.75 13.75H13.25V16.25H20.75V13.75Z" fill="white"/>
<path d="M20.75 18.75H13.25V21.25H20.75V18.75Z" fill="white"/>
</svg>
