<svg width="80" height="80" viewBox="0 0 80 80" fill="none" xmlns="http://www.w3.org/2000/svg">
<path d="M55.6071 21.5833C55.6071 18.5012 54.6932 15.4884 52.9809 12.9257C51.2685 10.363 48.8348 8.36568 45.9873 7.18622C43.1398 6.00675 40.0065 5.69815 36.9836 6.29944C33.9608 6.90072 31.1841 8.38489 29.0047 10.5643C26.8253 12.7436 25.3412 15.5203 24.7399 18.5432C24.1386 21.5661 24.4472 24.6993 25.6267 27.5468C26.8061 30.3943 28.8035 32.8281 31.3662 34.5404C33.9288 36.2527 36.9417 37.1667 40.0238 37.1667C44.1567 37.1667 48.1204 35.5249 51.0429 32.6024C53.9653 29.68 55.6071 25.7163 55.6071 21.5833ZM40.0238 34.3333C37.5021 34.3333 35.037 33.5856 32.9403 32.1846C30.8435 30.7836 29.2093 28.7923 28.2443 26.4626C27.2793 24.1328 27.0268 21.5692 27.5188 19.0959C28.0107 16.6227 29.2251 14.3508 31.0082 12.5677C32.7913 10.7846 35.0631 9.57029 37.5364 9.07833C40.0096 8.58637 42.5732 8.83886 44.903 9.80388C47.2328 10.7689 49.224 12.4031 50.625 14.4998C52.026 16.5965 52.7738 19.0616 52.7738 21.5833C52.7738 23.2577 52.444 24.9157 51.8033 26.4626C51.1625 28.0095 50.2234 29.415 49.0394 30.5989C47.8555 31.7829 46.4499 32.7221 44.903 33.3628C43.3561 34.0036 41.6981 34.3333 40.0238 34.3333Z" fill="white"/>
<path d="M45.138 20.8325C45.4397 20.2931 45.6201 19.6945 45.6667 19.0782C45.7133 18.462 45.625 17.843 45.4078 17.2645C45.1907 16.6859 44.85 16.1616 44.4095 15.7282C43.969 15.2948 43.4392 14.9627 42.8572 14.755V13.0833C42.8572 12.7076 42.7079 12.3472 42.4423 12.0816C42.1766 11.8159 41.8162 11.6666 41.4405 11.6666C41.0648 11.6666 40.7045 11.8159 40.4388 12.0816C40.1731 12.3472 40.0239 12.7076 40.0239 13.0833V14.5H38.6072V13.0833C38.6072 12.7076 38.4579 12.3472 38.1923 12.0816C37.9266 11.8159 37.5662 11.6666 37.1905 11.6666C36.8148 11.6666 36.4545 11.8159 36.1888 12.0816C35.9231 12.3472 35.7739 12.7076 35.7739 13.0833V14.5H34.3572C33.9815 14.5 33.6211 14.6492 33.3555 14.9149C33.0898 15.1806 32.9405 15.5409 32.9405 15.9166C32.9405 16.2923 33.0898 16.6527 33.3555 16.9184C33.6211 17.184 33.9815 17.3333 34.3572 17.3333H35.7739V25.8333H34.3572C33.9815 25.8333 33.6211 25.9825 33.3555 26.2482C33.0898 26.5139 32.9405 26.8742 32.9405 27.25C32.9405 27.6257 33.0898 27.986 33.3555 28.2517C33.6211 28.5174 33.9815 28.6666 34.3572 28.6666H35.7739V30.0833C35.7739 30.459 35.9231 30.8194 36.1888 31.085C36.4545 31.3507 36.8148 31.5 37.1905 31.5C37.5662 31.5 37.9266 31.3507 38.1923 31.085C38.4579 30.8194 38.6072 30.459 38.6072 30.0833V28.6666H40.0239V30.0833C40.0239 30.459 40.1731 30.8194 40.4388 31.085C40.7045 31.3507 41.0648 31.5 41.4405 31.5C41.8162 31.5 42.1766 31.3507 42.4423 31.085C42.7079 30.8194 42.8572 30.459 42.8572 30.0833V28.6666C43.7766 28.666 44.671 28.3672 45.4062 27.8151C46.1414 27.263 46.6777 26.4874 46.9347 25.6046C47.1917 24.7219 47.1555 23.7796 46.8316 22.9192C46.5076 22.0587 45.9134 21.3265 45.138 20.8325ZM41.4405 17.3333C41.8162 17.3333 42.1766 17.4825 42.4423 17.7482C42.7079 18.0139 42.8572 18.3742 42.8572 18.75C42.8572 19.1257 42.7079 19.486 42.4423 19.7517C42.1766 20.0174 41.8162 20.1666 41.4405 20.1666H38.6072V17.3333H41.4405ZM42.8572 25.8333H38.6072V23H42.8572C43.2329 23 43.5932 23.1492 43.8589 23.4149C44.1246 23.6806 44.2739 24.0409 44.2739 24.4166C44.2739 24.7923 44.1246 25.1527 43.8589 25.4184C43.5932 25.684 43.2329 25.8333 42.8572 25.8333Z" fill="white"/>
<path d="M74.0238 44.25C74.0238 43.1228 73.576 42.0418 72.779 41.2448C71.982 40.4477 70.901 40 69.7738 40H55.3521C55.0599 39.1733 54.519 38.4572 53.8038 37.95C53.0886 37.4427 52.234 37.1691 51.3571 37.1666H28.6905C27.8136 37.1691 26.959 37.4427 26.2438 37.95C25.5286 38.4572 24.9878 39.1733 24.6955 40H10.2738C9.14664 40 8.06564 40.4477 7.26861 41.2448C6.47158 42.0418 6.02381 43.1228 6.02381 44.25C6.02381 46.9558 5.75465 48.4008 7.12881 49.9166C5.74048 51.4608 6.02381 52.9341 6.02381 55.5833C6.03006 56.6317 6.42361 57.6408 7.12881 58.4166C5.74048 59.9608 6.02381 61.4341 6.02381 64.0833C6.02381 65.2105 6.47158 66.2915 7.26861 67.0885C8.06564 67.8855 9.14664 68.3333 10.2738 68.3333H24.4405V69.75C24.4405 70.8771 24.8882 71.9581 25.6853 72.7552C26.4823 73.5522 27.5633 74 28.6905 74H51.3571C52.4843 74 53.5653 73.5522 54.3623 72.7552C55.1594 71.9581 55.6071 70.8771 55.6071 69.75V68.3333H69.7738C70.901 68.3333 71.982 67.8855 72.779 67.0885C73.576 66.2915 74.0238 65.2105 74.0238 64.0833C74.0238 61.3775 74.293 59.9325 72.9188 58.4166C74.3355 56.8725 74.0238 55.3991 74.0238 52.75C74.0176 51.7015 73.624 50.6924 72.9188 49.9166C74.3071 48.3725 74.0238 46.8991 74.0238 44.25ZM71.1905 44.25V47.0833C71.1905 47.459 71.0412 47.8194 70.7755 48.085C70.5099 48.3507 70.1495 48.5 69.7738 48.5H55.3521C55.1589 47.9792 54.8706 47.4989 54.5021 47.0833C54.9754 46.4928 55.3186 45.8089 55.509 45.0764C55.6994 44.344 55.7329 43.5796 55.6071 42.8333H69.7738C70.1495 42.8333 70.5099 42.9825 70.7755 43.2482C71.0412 43.5139 71.1905 43.8742 71.1905 44.25ZM71.1905 52.75V55.5833C71.1905 55.959 71.0412 56.3194 70.7755 56.585C70.5099 56.8507 70.1495 57 69.7738 57H55.3521C55.1589 56.4792 54.8706 55.9989 54.5021 55.5833C54.9754 54.9928 55.3186 54.3089 55.509 53.5764C55.6994 52.844 55.7329 52.0796 55.6071 51.3333H69.7738C70.1495 51.3333 70.5099 51.4825 70.7755 51.7482C71.0412 52.0139 71.1905 52.3742 71.1905 52.75ZM8.85715 55.5833V52.75C8.85715 52.3742 9.0064 52.0139 9.27208 51.7482C9.53775 51.4825 9.89809 51.3333 10.2738 51.3333H24.4405C24.4405 53.0758 24.313 54.1666 25.5455 55.5833C25.177 55.9989 24.8888 56.4792 24.6955 57H10.2738C9.89809 57 9.53775 56.8507 9.27208 56.585C9.0064 56.3194 8.85715 55.959 8.85715 55.5833ZM52.7738 49.9166V52.75C52.7738 53.1257 52.6246 53.486 52.3589 53.7517C52.0932 54.0174 51.7329 54.1666 51.3571 54.1666H28.6905C28.3148 54.1666 27.9544 54.0174 27.6887 53.7517C27.4231 53.486 27.2738 53.1257 27.2738 52.75V49.9166C27.2738 49.5409 27.4231 49.1806 27.6887 48.9149C27.9544 48.6492 28.3148 48.5 28.6905 48.5H51.3571C51.7329 48.5 52.0932 48.6492 52.3589 48.9149C52.6246 49.1806 52.7738 49.5409 52.7738 49.9166ZM27.2738 61.25V58.4166C27.2738 58.0409 27.4231 57.6806 27.6887 57.4149C27.9544 57.1492 28.3148 57 28.6905 57H51.3571C51.7329 57 52.0932 57.1492 52.3589 57.4149C52.6246 57.6806 52.7738 58.0409 52.7738 58.4166V61.25C52.7738 61.6257 52.6246 61.986 52.3589 62.2517C52.0932 62.5174 51.7329 62.6666 51.3571 62.6666H28.6905C28.3148 62.6666 27.9544 62.5174 27.6887 62.2517C27.4231 61.986 27.2738 61.6257 27.2738 61.25ZM28.6905 40H51.3571C51.7329 40 52.0932 40.1492 52.3589 40.4149C52.6246 40.6806 52.7738 41.0409 52.7738 41.4166V44.25C52.7738 44.6257 52.6246 44.986 52.3589 45.2517C52.0932 45.5174 51.7329 45.6666 51.3571 45.6666H28.6905C28.3148 45.6666 27.9544 45.5174 27.6887 45.2517C27.4231 44.986 27.2738 44.6257 27.2738 44.25V41.4166C27.2738 41.0409 27.4231 40.6806 27.6887 40.4149C27.9544 40.1492 28.3148 40 28.6905 40ZM8.85715 44.25C8.85715 43.8742 9.0064 43.5139 9.27208 43.2482C9.53775 42.9825 9.89809 42.8333 10.2738 42.8333H24.4405C24.4405 44.5758 24.313 45.6666 25.5455 47.0833C25.177 47.4989 24.8888 47.9792 24.6955 48.5H10.2738C9.89809 48.5 9.53775 48.3507 9.27208 48.085C9.0064 47.8194 8.85715 47.459 8.85715 47.0833V44.25ZM8.85715 64.0833V61.25C8.85715 60.8742 9.0064 60.5139 9.27208 60.2482C9.53775 59.9825 9.89809 59.8333 10.2738 59.8333H24.4405C24.4405 61.5758 24.313 62.6666 25.5455 64.0833C25.177 64.4989 24.8888 64.9792 24.6955 65.5H10.2738C9.89809 65.5 9.53775 65.3507 9.27208 65.085C9.0064 64.8194 8.85715 64.459 8.85715 64.0833ZM52.7738 69.75C52.7738 70.1257 52.6246 70.486 52.3589 70.7517C52.0932 71.0174 51.7329 71.1666 51.3571 71.1666H28.6905C28.3148 71.1666 27.9544 71.0174 27.6887 70.7517C27.4231 70.486 27.2738 70.1257 27.2738 69.75V66.9166C27.2738 66.5409 27.4231 66.1806 27.6887 65.9149C27.9544 65.6492 28.3148 65.5 28.6905 65.5H51.3571C51.7329 65.5 52.0932 65.6492 52.3589 65.9149C52.6246 66.1806 52.7738 66.5409 52.7738 66.9166V69.75ZM71.1905 64.0833C71.1905 64.459 71.0412 64.8194 70.7755 65.085C70.5099 65.3507 70.1495 65.5 69.7738 65.5H55.3521C55.1589 64.9792 54.8706 64.4989 54.5021 64.0833C54.9754 63.4928 55.3186 62.8089 55.509 62.0764C55.6994 61.344 55.7329 60.5796 55.6071 59.8333H69.7738C70.1495 59.8333 70.5099 59.9825 70.7755 60.2482C71.0412 60.5139 71.1905 60.8742 71.1905 61.25V64.0833Z" fill="white"/>
</svg>
