<svg width="81" height="80" viewBox="0 0 81 80" fill="none" xmlns="http://www.w3.org/2000/svg">
<path d="M10.75 72.5H58.25V70H12V5H45.75V15C45.75 15.3315 45.8817 15.6495 46.1161 15.8839C46.3505 16.1183 46.6685 16.25 47 16.25H57V30H59.5V15C59.5 14.9725 59.4862 14.9488 59.4837 14.9213C59.4775 14.8117 59.4561 14.7036 59.42 14.6C59.4062 14.56 59.3963 14.5213 59.3787 14.4825C59.3183 14.3463 59.2336 14.2222 59.1287 14.1163L50.0175 5H62V30H64.5V5H67V30H69.5V3.75C69.5 3.41848 69.3683 3.10054 69.1339 2.86612C68.8995 2.6317 68.5815 2.5 68.25 2.5H10.75C10.4185 2.5 10.1005 2.6317 9.86612 2.86612C9.6317 3.10054 9.5 3.41848 9.5 3.75V71.25C9.5 71.5815 9.6317 71.8995 9.86612 72.1339C10.1005 72.3683 10.4185 72.5 10.75 72.5ZM48.25 13.75V6.7675L55.2325 13.75H48.25Z" fill="white"/>
<path d="M48.25 48.75V36.1787L50.095 37.315C50.2844 37.4315 50.5015 37.4954 50.7239 37.5001C50.9463 37.5047 51.1658 37.4499 51.36 37.3414C51.5541 37.2329 51.7158 37.0745 51.8283 36.8827C51.9408 36.6908 52.0001 36.4724 52 36.25V31.25C52.0001 31.0364 51.9454 30.8264 51.8412 30.64C51.7371 30.4535 51.5869 30.2969 51.405 30.185L47 27.475V21.25C47 20.9185 46.8683 20.6005 46.6339 20.3661C46.3995 20.1317 46.0815 20 45.75 20H40.75C40.4185 20 40.1005 20.1317 39.8661 20.3661C39.6317 20.6005 39.5 20.9185 39.5 21.25V22.86L35.155 20.185C34.958 20.0638 34.7313 19.9996 34.5 19.9996C34.2687 19.9996 34.042 20.0638 33.845 20.185L17.595 30.185C17.4131 30.2969 17.2629 30.4535 17.1588 30.64C17.0546 30.8264 16.9999 31.0364 17 31.25V36.25C16.9999 36.4724 17.0592 36.6908 17.1717 36.8827C17.2842 37.0745 17.4459 37.2329 17.64 37.3414C17.8342 37.4499 18.0537 37.5047 18.2761 37.5001C18.4985 37.4954 18.7156 37.4315 18.905 37.315L20.75 36.1787V48.75C20.75 49.0815 20.8817 49.3994 21.1161 49.6339C21.3505 49.8683 21.6685 50 22 50H47C47.3315 50 47.6495 49.8683 47.8839 49.6339C48.1183 49.3994 48.25 49.0815 48.25 48.75ZM42 22.5H44.5V25.9362L42 24.3975V22.5ZM19.5 31.9487L34.5 22.7175L49.5 31.9487V34.0125L35.155 25.185C34.958 25.0638 34.7313 24.9996 34.5 24.9996C34.2687 24.9996 34.042 25.0638 33.845 25.185L19.5 34.0125V31.9487ZM32 47.5V40H37V47.5H32ZM39.5 47.5V38.75C39.5 38.4185 39.3683 38.1005 39.1339 37.8661C38.8995 37.6317 38.5815 37.5 38.25 37.5H30.75C30.4185 37.5 30.1005 37.6317 29.8661 37.8661C29.6317 38.1005 29.5 38.4185 29.5 38.75V47.5H23.25V34.64L34.5 27.7175L45.75 34.64V47.5H39.5Z" fill="white"/>
<path d="M33.25 8.75H17V11.25H33.25V8.75Z" fill="white"/>
<path d="M43.25 13.75H17V16.25H43.25V13.75Z" fill="white"/>
<path d="M39.5 55H17V57.5H39.5V55Z" fill="white"/>
<path d="M24.5 60H17V62.5H24.5V60Z" fill="white"/>
<path d="M64.5 32.5C63.5054 32.5 62.5516 32.8951 61.8484 33.5983C61.1451 34.3016 60.75 35.2554 60.75 36.25V72.5C60.7504 72.7468 60.8234 72.9881 60.96 73.1937L63.46 76.9437C63.5742 77.1149 63.7288 77.2553 63.9102 77.3524C64.0917 77.4495 64.2942 77.5003 64.5 77.5003C64.7058 77.5003 64.9083 77.4495 65.0898 77.3524C65.2712 77.2553 65.4258 77.1149 65.54 76.9437L68.04 73.1937C68.1766 72.9881 68.2496 72.7468 68.25 72.5V40H69.5C69.8315 40 70.1495 40.1317 70.3839 40.3661C70.6183 40.6005 70.75 40.9185 70.75 41.25V52.5H73.25V41.25C73.25 40.2554 72.8549 39.3016 72.1516 38.5983C71.4484 37.8951 70.4946 37.5 69.5 37.5H68.25V36.25C68.25 35.2554 67.8549 34.3016 67.1516 33.5983C66.4484 32.8951 65.4946 32.5 64.5 32.5ZM64.5 35C64.8315 35 65.1495 35.1317 65.3839 35.3661C65.6183 35.6005 65.75 35.9185 65.75 36.25V37.5H63.25V36.25C63.25 35.9185 63.3817 35.6005 63.6161 35.3661C63.8505 35.1317 64.1685 35 64.5 35ZM65.75 72.125L64.5 74L63.25 72.125V53.75H65.75V72.125ZM65.75 51.25H63.25V40H65.75V51.25Z" fill="white"/>
<path d="M39.5 60H27V62.5H39.5V60Z" fill="white"/>
<path d="M43.25 8.75H35.75V11.25H43.25V8.75Z" fill="white"/>
<path d="M52.4127 55.355L49.9377 55C49.7394 56.3355 49.4197 57.6501 48.9827 58.9275H47.9677C47.0103 58.9146 46.071 59.189 45.271 59.7153C44.4711 60.2416 43.8473 60.9956 43.4802 61.88C43.3087 62.2352 43.2308 62.6284 43.254 63.0222C43.2772 63.416 43.4007 63.7974 43.6127 64.13C43.919 64.5039 44.3138 64.7952 44.7614 64.9775C45.2089 65.1598 45.695 65.2273 46.1752 65.1738C48.2877 65.1738 49.7265 63.4488 50.6865 61.4238H57.4252V58.9275H51.6265C51.9726 57.7567 52.2353 56.5629 52.4127 55.355ZM46.1752 62.6775C46.0705 62.6783 45.9658 62.6737 45.8615 62.6637C46.0482 62.3018 46.3282 61.9964 46.6726 61.779C47.017 61.5617 47.4132 61.4403 47.8202 61.4275C47.3227 62.1925 46.7652 62.6775 46.1752 62.6775Z" fill="white"/>
</svg>
