<svg width="20" height="21" viewBox="0 0 20 21" fill="none" xmlns="http://www.w3.org/2000/svg">
<path d="M4.82785 10.9849L10.4848 5.32794C11.0475 4.76529 11.8106 4.44919 12.6063 4.44919C13.4021 4.44919 14.1652 4.76529 14.7278 5.32794C15.2905 5.8906 15.6066 6.65373 15.6066 7.44944C15.6066 8.24516 15.2905 9.00829 14.7278 9.57094L8.00985 16.2879C7.72695 16.5612 7.34804 16.7124 6.95475 16.709C6.56145 16.7055 6.18523 16.5478 5.90712 16.2697C5.62901 15.9916 5.47125 15.6153 5.46784 15.222C5.46442 14.8287 5.61561 14.4498 5.88885 14.1669L11.8988 8.15694C11.9927 8.06319 12.0455 7.93598 12.0456 7.8033C12.0457 7.67062 11.9931 7.54333 11.8993 7.44944C11.8056 7.35556 11.6784 7.30276 11.5457 7.30266C11.413 7.30257 11.2857 7.35519 11.1918 7.44894L5.18185 13.4589C4.71633 13.9284 4.45574 14.5632 4.45709 15.2243C4.45845 15.8855 4.72164 16.5192 5.18907 16.9867C5.6565 17.4543 6.29012 17.7177 6.95126 17.7192C7.61241 17.7207 8.24724 17.4603 8.71685 16.9949L15.4348 10.2779C16.1851 9.52778 16.6067 8.51028 16.6068 7.4493C16.6069 6.38831 16.1855 5.37074 15.4353 4.62044C14.6852 3.87015 13.6677 3.44858 12.6067 3.44849C11.5457 3.44839 10.5281 3.86978 9.77785 4.61994L4.11985 10.2779C4.02877 10.3722 3.97837 10.4985 3.97951 10.6296C3.98065 10.7607 4.03323 10.8861 4.12594 10.9789C4.21864 11.0716 4.34405 11.1241 4.47515 11.1253C4.60625 11.1264 4.73255 11.076 4.82685 10.9849H4.82785Z" fill="white"/>
</svg>
