<svg width="8" height="14" viewBox="0 0 8 14" fill="none" xmlns="http://www.w3.org/2000/svg">
<path d="M1.5 3.25C1.83152 3.25 2.14946 3.1183 2.38388 2.88388C2.6183 2.64946 2.75 2.33152 2.75 2C2.75 1.66848 2.6183 1.35054 2.38388 1.11612C2.14946 0.881696 1.83152 0.75 1.5 0.75C1.16848 0.75 0.850537 0.881696 0.616117 1.11612C0.381696 1.35054 0.25 1.66848 0.25 2C0.25 2.33152 0.381696 2.64946 0.616117 2.88388C0.850537 3.1183 1.16848 3.25 1.5 3.25ZM6.5 3.25C6.83152 3.25 7.14946 3.1183 7.38388 2.88388C7.6183 2.64946 7.75 2.33152 7.75 2C7.75 1.66848 7.6183 1.35054 7.38388 1.11612C7.14946 0.881696 6.83152 0.75 6.5 0.75C6.16848 0.75 5.85054 0.881696 5.61612 1.11612C5.3817 1.35054 5.25 1.66848 5.25 2C5.25 2.33152 5.3817 2.64946 5.61612 2.88388C5.85054 3.1183 6.16848 3.25 6.5 3.25ZM7.75 7C7.75 7.33152 7.6183 7.64946 7.38388 7.88388C7.14946 8.1183 6.83152 8.25 6.5 8.25C6.16848 8.25 5.85054 8.1183 5.61612 7.88388C5.3817 7.64946 5.25 7.33152 5.25 7C5.25 6.66848 5.3817 6.35054 5.61612 6.11612C5.85054 5.8817 6.16848 5.75 6.5 5.75C6.83152 5.75 7.14946 5.8817 7.38388 6.11612C7.6183 6.35054 7.75 6.66848 7.75 7V7ZM1.5 8.25C1.83152 8.25 2.14946 8.1183 2.38388 7.88388C2.6183 7.64946 2.75 7.33152 2.75 7C2.75 6.66848 2.6183 6.35054 2.38388 6.11612C2.14946 5.8817 1.83152 5.75 1.5 5.75C1.16848 5.75 0.850537 5.8817 0.616117 6.11612C0.381696 6.35054 0.25 6.66848 0.25 7C0.25 7.33152 0.381696 7.64946 0.616117 7.88388C0.850537 8.1183 1.16848 8.25 1.5 8.25ZM7.75 12C7.75 12.3315 7.6183 12.6495 7.38388 12.8839C7.14946 13.1183 6.83152 13.25 6.5 13.25C6.16848 13.25 5.85054 13.1183 5.61612 12.8839C5.3817 12.6495 5.25 12.3315 5.25 12C5.25 11.6685 5.3817 11.3505 5.61612 11.1161C5.85054 10.8817 6.16848 10.75 6.5 10.75C6.83152 10.75 7.14946 10.8817 7.38388 11.1161C7.6183 11.3505 7.75 11.6685 7.75 12ZM1.5 13.25C1.83152 13.25 2.14946 13.1183 2.38388 12.8839C2.6183 12.6495 2.75 12.3315 2.75 12C2.75 11.6685 2.6183 11.3505 2.38388 11.1161C2.14946 10.8817 1.83152 10.75 1.5 10.75C1.16848 10.75 0.850537 10.8817 0.616117 11.1161C0.381696 11.3505 0.25 11.6685 0.25 12C0.25 12.3315 0.381696 12.6495 0.616117 12.8839C0.850537 13.1183 1.16848 13.25 1.5 13.25V13.25Z" fill="#4F4F4F"/>
</svg>
