<svg width="20" height="20" viewBox="0 0 20 20" fill="none" xmlns="http://www.w3.org/2000/svg">
<path d="M4.82785 10.4849L10.4848 4.82794C11.0475 4.26529 11.8106 3.94919 12.6063 3.94919C13.4021 3.94919 14.1652 4.26529 14.7278 4.82794C15.2905 5.3906 15.6066 6.15373 15.6066 6.94944C15.6066 7.74516 15.2905 8.50829 14.7278 9.07094L8.00985 15.7879C7.72695 16.0612 7.34804 16.2124 6.95475 16.209C6.56145 16.2055 6.18523 16.0478 5.90712 15.7697C5.62901 15.4916 5.47125 15.1153 5.46784 14.722C5.46442 14.3287 5.61561 13.9498 5.88885 13.6669L11.8988 7.65694C11.9927 7.56319 12.0455 7.43598 12.0456 7.3033C12.0457 7.17062 11.9931 7.04333 11.8993 6.94944C11.8056 6.85556 11.6784 6.80276 11.5457 6.80266C11.413 6.80257 11.2857 6.85519 11.1918 6.94894L5.18185 12.9589C4.71633 13.4284 4.45574 14.0632 4.45709 14.7243C4.45845 15.3855 4.72164 16.0192 5.18907 16.4867C5.6565 16.9543 6.29012 17.2177 6.95126 17.2192C7.61241 17.2207 8.24724 16.9603 8.71685 16.4949L15.4348 9.77794C16.1851 9.02778 16.6067 8.01028 16.6068 6.9493C16.6069 5.88831 16.1855 4.87074 15.4353 4.12044C14.6852 3.37015 13.6677 2.94858 12.6067 2.94849C11.5457 2.94839 10.5281 3.36978 9.77785 4.11994L4.11985 9.77794C4.02877 9.87224 3.97837 9.99855 3.97951 10.1296C3.98065 10.2607 4.03323 10.3861 4.12594 10.4789C4.21864 10.5716 4.34405 10.6241 4.47515 10.6253C4.60625 10.6264 4.73255 10.576 4.82685 10.4849H4.82785Z" fill="#4F4F4F"/>
</svg>
