<svg width="32" height="30" viewBox="0 0 32 30" fill="none" xmlns="http://www.w3.org/2000/svg">
<path d="M19 25C24.6565 25 27.4855 25 29.242 23.242C31 21.4855 31 18.6565 31 13C31 7.3435 31 4.5145 29.242 2.758C27.4855 1 24.6565 1 19 1H13C7.3435 1 4.5145 1 2.758 2.758C1 4.5145 1 7.3435 1 13C1 18.6565 1 21.4855 2.758 23.242C3.7375 24.223 5.05 24.6565 7 24.847" stroke="#1E1E1E" stroke-width="2" stroke-linecap="round" stroke-linejoin="round"/>
<path d="M18.9999 25C17.1459 25 15.1029 25.75 13.2384 26.7175C10.2414 28.273 8.74287 29.0515 8.00487 28.555C7.26687 28.06 7.40637 26.5225 7.68687 23.449L7.74987 22.75M15.9999 13V13.015V13ZM9.99987 13V13.015V13ZM21.9999 13V13.015V13Z" stroke="#1E1E1E" stroke-width="2" stroke-linecap="round"/>
</svg>
