<svg width="10" height="7" viewBox="0 0 10 7" fill="none" xmlns="http://www.w3.org/2000/svg">
<path d="M1.24991 0.0834109H8.74991C8.82585 0.083649 8.90028 0.104592 8.9652 0.143985C9.03011 0.183378 9.08306 0.23973 9.11833 0.306974C9.1536 0.374219 9.16987 0.449811 9.16537 0.525612C9.16088 0.601414 9.1358 0.674554 9.09283 0.737161L5.34283 6.15383C5.18741 6.37841 4.81325 6.37841 4.65741 6.15383L0.907414 0.737161C0.864007 0.674685 0.838553 0.601507 0.833816 0.52558C0.829079 0.449652 0.84524 0.373879 0.880544 0.306491C0.915849 0.239104 0.968945 0.18268 1.03407 0.143351C1.09919 0.104022 1.17384 0.0832911 1.24991 0.0834109Z" fill="#EC3B33"/>
</svg>
