<svg width="24" height="24" viewBox="0 0 24 24" fill="none" xmlns="http://www.w3.org/2000/svg">
<path d="M19 10V7L15 2H5V10M5 19V22H19V19H5Z" stroke="#EC3B33" stroke-linecap="round" stroke-linejoin="round"/>
<path d="M14 2V7H19" stroke="#EC3B33" stroke-linecap="round" stroke-linejoin="round"/>
<path d="M21 10H3C2.44772 10 2 10.4477 2 11V18C2 18.5523 2.44772 19 3 19H21C21.5523 19 22 18.5523 22 18V11C22 10.4477 21.5523 10 21 10Z" stroke="#EC3B33" stroke-linejoin="round"/>
<path d="M5 12.5V16.5M10.5 12.5V16.5V12.5Z" stroke="#EC3B33" stroke-linecap="round"/>
<path d="M16 16.5V12.5H18.5M16 15H18.5M10.5 12.5H11.5C12.0304 12.5 12.5391 12.7107 12.9142 13.0858C13.2893 13.4609 13.5 13.9696 13.5 14.5C13.5 15.0304 13.2893 15.5391 12.9142 15.9142C12.5391 16.2893 12.0304 16.5 11.5 16.5H10.5M5 12.5H6.75C7.08152 12.5 7.39946 12.6317 7.63388 12.8661C7.8683 13.1005 8 13.4185 8 13.75C8 14.0815 7.8683 14.3995 7.63388 14.6339C7.39946 14.8683 7.08152 15 6.75 15H5V12.5Z" stroke="#EC3B33" stroke-linecap="round" stroke-linejoin="round"/>
<path d="M8 6H10" stroke="#EC3B33" stroke-linecap="round"/>
</svg>
