<svg width="24" height="25" viewBox="0 0 24 25" fill="none" xmlns="http://www.w3.org/2000/svg">
<path d="M4.5 15.1152C3.90326 15.1152 3.33097 14.8782 2.90901 14.4562C2.48705 14.0343 2.25 13.462 2.25 12.8652C2.25 12.2685 2.48705 11.6962 2.90901 11.2742C3.33097 10.8523 3.90326 10.6152 4.5 10.6152C5.09674 10.6152 5.66903 10.8523 6.09099 11.2742C6.51295 11.6962 6.75 12.2685 6.75 12.8652C6.75 13.462 6.51295 14.0343 6.09099 14.4562C5.66903 14.8782 5.09674 15.1152 4.5 15.1152ZM12 15.1152C11.4033 15.1152 10.831 14.8782 10.409 14.4562C9.98705 14.0343 9.75 13.462 9.75 12.8652C9.75 12.2685 9.98705 11.6962 10.409 11.2742C10.831 10.8523 11.4033 10.6152 12 10.6152C12.5967 10.6152 13.169 10.8523 13.591 11.2742C14.0129 11.6962 14.25 12.2685 14.25 12.8652C14.25 13.462 14.0129 14.0343 13.591 14.4562C13.169 14.8782 12.5967 15.1152 12 15.1152ZM19.5 15.1152C18.9033 15.1152 18.331 14.8782 17.909 14.4562C17.4871 14.0343 17.25 13.462 17.25 12.8652C17.25 12.2685 17.4871 11.6962 17.909 11.2742C18.331 10.8523 18.9033 10.6152 19.5 10.6152C20.0967 10.6152 20.669 10.8523 21.091 11.2742C21.5129 11.6962 21.75 12.2685 21.75 12.8652C21.75 13.462 21.5129 14.0343 21.091 14.4562C20.669 14.8782 20.0967 15.1152 19.5 15.1152Z" fill="white"/>
</svg>
