<svg width="17" height="17" viewBox="0 0 17 17" fill="none" xmlns="http://www.w3.org/2000/svg">
<path d="M9.47016 5.70051C9.61103 5.5664 9.79848 5.49226 9.99298 5.49373C10.1875 5.4952 10.3738 5.57217 10.5126 5.7084C10.6514 5.84463 10.7319 6.02946 10.737 6.22389C10.7422 6.41832 10.6716 6.60714 10.5402 6.75051L6.55016 11.7405C6.48155 11.8144 6.39874 11.8737 6.30669 11.9149C6.21464 11.956 6.11523 11.9782 6.01441 11.9801C5.91359 11.982 5.81343 11.9635 5.71991 11.9257C5.6264 11.888 5.54146 11.8318 5.47016 11.7605L2.82416 9.11451C2.75047 9.04585 2.69137 8.96305 2.65038 8.87105C2.60938 8.77905 2.58734 8.67974 2.58557 8.57903C2.58379 8.47833 2.60231 8.3783 2.64003 8.28491C2.67776 8.19153 2.7339 8.10669 2.80512 8.03547C2.87634 7.96425 2.96117 7.90811 3.05456 7.87039C3.14795 7.83267 3.24798 7.81414 3.34868 7.81592C3.44938 7.8177 3.5487 7.83974 3.6407 7.88073C3.7327 7.92172 3.8155 7.98082 3.88416 8.05451L5.97816 10.1475L9.45016 5.72251C9.45639 5.71479 9.46306 5.70744 9.47016 5.70051ZM8.55016 10.8405L9.47016 11.7605C9.54144 11.8317 9.62632 11.8877 9.71974 11.9254C9.81316 11.963 9.9132 11.9814 10.0139 11.9796C10.1146 11.9777 10.2139 11.9556 10.3059 11.9145C10.3978 11.8734 10.4806 11.8143 10.5492 11.7405L14.5412 6.75051C14.6129 6.67971 14.6696 6.59519 14.7079 6.50199C14.7462 6.40879 14.7654 6.30882 14.7642 6.20805C14.763 6.10729 14.7415 6.00779 14.7011 5.91551C14.6606 5.82323 14.6019 5.74005 14.5286 5.67094C14.4552 5.60183 14.3687 5.54822 14.2742 5.51329C14.1797 5.47836 14.0791 5.46284 13.9784 5.46765C13.8778 5.47247 13.7791 5.49752 13.6883 5.5413C13.5976 5.58509 13.5166 5.64672 13.4502 5.72251L9.97716 10.1475L9.49216 9.66151L8.54916 10.8405H8.55016Z" fill="white"/>
</svg>
