<svg width="24" height="30" viewBox="0 0 24 30" fill="none" xmlns="http://www.w3.org/2000/svg">
<path fill-rule="evenodd" clip-rule="evenodd" d="M12 4C5.925 4 1 8.925 1 15C1 21.075 5.925 26 12 26C18.075 26 23 21.075 23 15C23 8.925 18.075 4 12 4ZM16.768 13.14C16.8558 13.0396 16.9226 12.9227 16.9646 12.7962C17.0065 12.6696 17.0227 12.5359 17.0123 12.403C17.0018 12.2701 16.9648 12.1406 16.9036 12.0221C16.8423 11.9037 16.758 11.7987 16.6555 11.7133C16.5531 11.628 16.4346 11.564 16.3071 11.5251C16.1796 11.4862 16.0455 11.4732 15.9129 11.4868C15.7802 11.5005 15.6517 11.5405 15.5347 11.6046C15.4178 11.6687 15.3149 11.7555 15.232 11.86L10.932 17.019L8.707 14.793C8.5184 14.6108 8.2658 14.51 8.0036 14.5123C7.7414 14.5146 7.49059 14.6198 7.30518 14.8052C7.11977 14.9906 7.0146 15.2414 7.01233 15.5036C7.01005 15.7658 7.11084 16.0184 7.293 16.207L10.293 19.207C10.3913 19.3052 10.5089 19.3818 10.6384 19.4321C10.7679 19.4823 10.9065 19.505 11.0453 19.4986C11.184 19.4923 11.32 19.4572 11.4444 19.3954C11.5688 19.3337 11.6791 19.2467 11.768 19.14L16.768 13.14Z" fill="#F26C4F"/>
</svg>
