<svg width="19" height="19" viewBox="0 0 19 19" fill="none" xmlns="http://www.w3.org/2000/svg">
<path d="M11.41 8.99978L18.7 1.70978C18.8638 1.51848 18.9494 1.2724 18.9397 1.02072C18.93 0.769044 18.8257 0.530305 18.6476 0.35221C18.4695 0.174116 18.2307 0.0697827 17.9791 0.0600615C17.7274 0.0503404 17.4813 0.135947 17.29 0.299773L10 7.58978L2.71 0.289773C2.5187 0.125947 2.27263 0.0403411 2.02095 0.0500622C1.76927 0.0597834 1.53054 0.164115 1.35244 0.34221C1.17435 0.520304 1.07001 0.759043 1.06029 1.01072C1.05057 1.2624 1.13618 1.50848 1.3 1.69978L8.59 8.99978L1.29 16.2898C1.18532 16.3795 1.1003 16.4898 1.04028 16.6138C0.980256 16.7379 0.946525 16.873 0.941205 17.0108C0.935886 17.1485 0.959092 17.2858 1.00937 17.4141C1.05964 17.5425 1.1359 17.659 1.23335 17.7565C1.33081 17.8539 1.44736 17.9302 1.57568 17.9805C1.70401 18.0307 1.84134 18.0539 1.97906 18.0486C2.11678 18.0433 2.25191 18.0096 2.37597 17.9495C2.50004 17.8895 2.61036 17.8045 2.7 17.6998L10 10.4098L17.29 17.6998C17.4813 17.8636 17.7274 17.9492 17.9791 17.9395C18.2307 17.9298 18.4695 17.8255 18.6476 17.6474C18.8257 17.4693 18.93 17.2305 18.9397 16.9789C18.9494 16.7272 18.8638 16.4811 18.7 16.2898L11.41 8.99978Z" fill="black"/>
</svg>
