<svg width="20" height="21" viewBox="0 0 20 21" fill="none" xmlns="http://www.w3.org/2000/svg">
<path d="M10 2.16211C5.5 2.16211 1.875 5.78711 1.875 10.2871C1.875 14.7871 5.5 18.4121 10 18.4121C14.5 18.4121 18.125 14.7871 18.125 10.2871C18.125 9.41211 18.0075 8.54086 17.695 7.72836L16.68 8.72461C16.805 9.22461 16.8756 9.72461 16.8756 10.2871C16.8756 14.0996 13.8131 17.1621 10.0006 17.1621C6.18812 17.1621 3.125 14.0996 3.125 10.2871C3.125 6.47461 6.1875 3.41211 10 3.41211C11.875 3.41211 13.5588 4.15836 14.7463 5.34586L15.625 4.46711C14.1875 3.02961 12.1875 2.16211 10 2.16211ZM17.05 4.83711L10 11.889L7.325 9.21398L6.425 10.1121L9.55 13.2371L10 13.6659L10.45 13.2365L17.95 5.73648L17.05 4.83648V4.83711Z" fill="#1E1E1E"/>
</svg>
