<svg width="20" height="21" viewBox="0 0 20 21" fill="none" xmlns="http://www.w3.org/2000/svg">
<path d="M4.82797 11.3502L10.485 5.69324C11.0476 5.13058 11.8108 4.81448 12.6065 4.81448C13.4022 4.81448 14.1653 5.13058 14.728 5.69324C15.2906 6.2559 15.6067 7.01902 15.6067 7.81474C15.6067 8.61046 15.2906 9.37358 14.728 9.93624L8.00997 16.6532C7.72707 16.9265 7.34816 17.0777 6.95487 17.0742C6.56157 17.0708 6.18535 16.9131 5.90724 16.635C5.62913 16.3569 5.47138 15.9806 5.46796 15.5873C5.46454 15.194 5.61573 14.8151 5.88897 14.5322L11.899 8.52224C11.9929 8.42848 12.0457 8.30127 12.0457 8.16859C12.0458 8.03591 11.9932 7.90863 11.8995 7.81474C11.8057 7.72085 11.6785 7.66805 11.5458 7.66796C11.4131 7.66787 11.2859 7.72048 11.192 7.81424L5.18197 13.8242C4.71645 14.2937 4.45586 14.9285 4.45721 15.5896C4.45857 16.2508 4.72176 16.8845 5.18919 17.352C5.65663 17.8196 6.29024 18.083 6.95138 18.0845C7.61253 18.086 8.24736 17.8256 8.71697 17.3602L15.435 10.6432C16.1853 9.89307 16.6068 8.87558 16.6069 7.81459C16.607 6.75361 16.1856 5.73604 15.4355 4.98574C14.6853 4.23544 13.6678 3.81388 12.6068 3.81378C11.5458 3.81369 10.5283 4.23507 9.77797 4.98524L4.11997 10.6432C4.02889 10.7375 3.97849 10.8638 3.97963 10.9949C3.98077 11.126 4.03336 11.2514 4.12606 11.3441C4.21876 11.4369 4.34417 11.4894 4.47527 11.4906C4.60637 11.4917 4.73267 11.4413 4.82697 11.3502H4.82797Z" fill="white"/>
</svg>
