<svg width="20" height="21" viewBox="0 0 20 21" fill="none" xmlns="http://www.w3.org/2000/svg">
<path d="M10 2.24023C7.5975 2.24023 5.625 4.21273 5.625 6.61523V8.49023H4.75C4.19772 8.49023 3.75 8.93795 3.75 9.49023V17.4902C3.75 18.0425 4.19772 18.4902 4.75 18.4902H15.25C15.8023 18.4902 16.25 18.0425 16.25 17.4902V9.49023C16.25 8.93795 15.8023 8.49023 15.25 8.49023H14.375V6.61523C14.375 4.21273 12.4025 2.24023 10 2.24023ZM10 3.49023C11.7213 3.49023 13.125 4.89398 13.125 6.61523V8.49023H6.875V6.61523C6.875 4.89398 8.27875 3.49023 10 3.49023ZM5 9.74023H15V17.2402H5V9.74023Z" fill="#4F4F4F"/>
</svg>
