<svg width="24" height="24" viewBox="0 0 24 24" fill="none" xmlns="http://www.w3.org/2000/svg">
<path d="M14.5042 17.4412C15.7796 17.1492 16.9968 16.645 18.105 15.9495C18.4957 15.6858 18.7685 15.2805 18.8656 14.8193C18.9628 14.3581 18.8767 13.8771 18.6257 13.4782C18.3746 13.0793 17.9781 12.7938 17.5203 12.6819C17.0624 12.5701 16.5789 12.6408 16.1722 12.879C14.9209 13.6602 13.4755 14.0743 12.0004 14.0743C10.5253 14.0743 9.07978 13.6602 7.82849 12.879C7.42227 12.6229 6.93111 12.5382 6.46257 12.6435C5.99404 12.7488 5.58633 13.0355 5.32874 13.4408V13.4445C5.20148 13.6458 5.11518 13.8702 5.0748 14.1048C5.03442 14.3395 5.04074 14.5798 5.09342 14.8121C5.14609 15.0443 5.24407 15.2638 5.38175 15.4581C5.51943 15.6524 5.6941 15.8176 5.89574 15.9443L5.89874 15.948C7.00409 16.6436 8.21928 17.147 9.49274 17.4368L6.02774 20.901C5.68847 21.234 5.4951 21.6879 5.49004 22.1633C5.48498 22.6386 5.66864 23.0966 6.00074 23.4368L6.03149 23.4675C6.37574 23.8223 6.84074 23.9985 7.30574 23.9985C7.77074 23.9985 8.23499 23.8223 8.57849 23.4675L12.0007 20.0648L15.4027 23.472C16.1257 24.1628 17.274 24.147 17.97 23.4247C18.2966 23.0866 18.4792 22.6349 18.4792 22.1647C18.4792 21.6946 18.2966 21.2429 17.97 20.9047L14.5042 17.4412ZM12 12.387C13.6422 12.386 15.2169 11.7334 16.3784 10.5725C17.5398 9.41157 18.1932 7.83719 18.195 6.195C18.195 2.781 15.414 0 12 0C8.58599 0 5.80499 2.781 5.80499 6.195C5.80678 7.83754 6.46001 9.4123 7.62139 10.5738C8.78277 11.7353 10.3575 12.3888 12 12.3907V12.387ZM12 3.633C12.6794 3.6334 13.3308 3.90345 13.8112 4.38383C14.2915 4.86421 14.5616 5.51564 14.562 6.195C14.5618 6.87491 14.292 7.52699 13.8117 8.00825C13.3314 8.48951 12.6799 8.76066 12 8.76225C11.3198 8.76047 10.668 8.48937 10.1872 8.00826C9.70634 7.52715 9.43563 6.87519 9.43424 6.195C9.43661 5.51525 9.70769 4.86402 10.1884 4.38336C10.669 3.9027 11.3202 3.63162 12 3.62925V3.633Z" fill="#1E1E1E"/>
</svg>
