<svg width="100" height="100" viewBox="0 0 100 100" fill="none" xmlns="http://www.w3.org/2000/svg">
<path d="M19.0958 72.1707C14.8042 67.6124 12.5 62.4999 12.5 54.2124C12.5 39.629 22.7375 26.5582 37.625 20.0957L41.3458 25.8374C27.45 33.354 24.7333 43.1082 23.65 49.2582C25.8875 48.0999 28.8167 47.6957 31.6875 47.9624C39.2042 48.6582 45.1292 54.829 45.1292 62.4999C45.1292 66.3676 43.5927 70.0769 40.8578 72.8118C38.1229 75.5467 34.4136 77.0832 30.5458 77.0832C28.4069 77.0645 26.2931 76.6206 24.3273 75.7772C22.3616 74.9338 20.5833 73.7079 19.0958 72.1707ZM60.7625 72.1707C56.4708 67.6124 54.1667 62.4999 54.1667 54.2124C54.1667 39.629 64.4042 26.5582 79.2917 20.0957L83.0125 25.8374C69.1167 33.354 66.4 43.1082 65.3167 49.2582C67.5542 48.0999 70.4833 47.6957 73.3542 47.9624C80.8708 48.6582 86.7958 54.829 86.7958 62.4999C86.7958 66.3676 85.2594 70.0769 82.5245 72.8118C79.7896 75.5467 76.0802 77.0832 72.2125 77.0832C70.0736 77.0645 67.9597 76.6206 65.994 75.7772C64.0283 74.9338 62.2499 73.7079 60.7625 72.1707Z" fill="#EC3B33"/>
</svg>
