<svg width="24" height="27" viewBox="0 0 24 27" fill="none" xmlns="http://www.w3.org/2000/svg">
<path d="M14 0.375V6.9375C14 7.68342 14.2963 8.39879 14.8238 8.92624C15.3512 9.45368 16.0666 9.75 16.8125 9.75H23.375V23.8125C23.375 24.5584 23.0787 25.2738 22.5512 25.8012C22.0238 26.3287 21.3084 26.625 20.5625 26.625H19.4656C19.6423 26.1245 19.6737 25.5842 19.5562 25.0666C19.4387 24.549 19.1772 24.0752 18.8019 23.7L15.0519 19.95C15.7723 18.4439 16.0298 16.758 15.7917 15.1056C15.5536 13.4531 14.8306 11.9085 13.7143 10.6671C12.598 9.42571 11.1385 8.54339 9.5205 8.13182C7.90252 7.72025 6.19881 7.79792 4.625 8.355V3.1875C4.625 2.44158 4.92132 1.72621 5.44876 1.19876C5.97621 0.671316 6.69158 0.375 7.4375 0.375H14ZM15.875 0.84375V6.9375C15.875 7.18614 15.9738 7.4246 16.1496 7.60041C16.3254 7.77623 16.5639 7.875 16.8125 7.875H22.9062L15.875 0.84375ZM11.3675 21.5681C10.0388 22.5617 8.383 23.0151 6.73343 22.8371C5.08386 22.6591 3.56294 21.8629 2.47677 20.6087C1.39059 19.3545 0.819779 17.7355 0.879216 16.0774C0.938653 14.4193 1.62392 12.8453 2.79712 11.6721C3.97031 10.4989 5.54433 9.81365 7.20241 9.75422C8.86049 9.69478 10.4795 10.2656 11.7337 11.3518C12.9879 12.4379 13.7841 13.9589 13.9621 15.6084C14.1401 17.258 13.6867 18.9138 12.6931 20.2425L17.4744 25.0237C17.6504 25.1995 17.7494 25.4381 17.7496 25.6868C17.7498 25.9356 17.6511 26.1743 17.4753 26.3503C17.2995 26.5264 17.061 26.6253 16.8122 26.6255C16.5634 26.6257 16.3248 26.527 16.1487 26.3513L11.3675 21.57V21.5681ZM12.125 16.3125C12.125 15.0693 11.6311 13.877 10.7521 12.9979C9.87299 12.1189 8.6807 11.625 7.4375 11.625C6.1943 11.625 5.00201 12.1189 4.12294 12.9979C3.24386 13.877 2.75 15.0693 2.75 16.3125C2.75 17.5557 3.24386 18.748 4.12294 19.6271C5.00201 20.5061 6.1943 21 7.4375 21C8.6807 21 9.87299 20.5061 10.7521 19.6271C11.6311 18.748 12.125 17.5557 12.125 16.3125V16.3125Z" fill="#EC3B33"/>
</svg>
