<svg width="20" height="20" viewBox="0 0 20 20" fill="none" xmlns="http://www.w3.org/2000/svg">
<path d="M17.7778 3.33325H2.2222C1.92751 3.33325 1.64489 3.45032 1.43652 3.65869C1.22815 3.86706 1.11108 4.14968 1.11108 4.44436V15.5555C1.11108 15.8502 1.22815 16.1328 1.43652 16.3411C1.64489 16.5495 1.92751 16.6666 2.2222 16.6666H17.7778C18.0724 16.6666 18.3551 16.5495 18.5634 16.3411C18.7718 16.1328 18.8889 15.8502 18.8889 15.5555V4.44436C18.8889 4.14968 18.7718 3.86706 18.5634 3.65869C18.3551 3.45032 18.0724 3.33325 17.7778 3.33325ZM16.9222 15.5555H3.14442L7.03331 11.5333L6.23331 10.761L2.2222 14.911V5.28881L9.12775 12.161C9.33593 12.368 9.61755 12.4841 9.91108 12.4841C10.2046 12.4841 10.4862 12.368 10.6944 12.161L17.7778 5.11659V14.8388L13.6889 10.7499L12.9055 11.5333L16.9222 15.5555ZM2.94997 4.44436H16.8778L9.91108 11.3721L2.94997 4.44436Z" fill="#4F4F4F"/>
</svg>
