<svg width="20" height="20" viewBox="0 0 20 20" fill="none" xmlns="http://www.w3.org/2000/svg">
<path d="M10 1.875C7.5975 1.875 5.625 3.8475 5.625 6.25V8.125H4.75C4.19772 8.125 3.75 8.57272 3.75 9.125V17.125C3.75 17.6773 4.19772 18.125 4.75 18.125H15.25C15.8023 18.125 16.25 17.6773 16.25 17.125V9.125C16.25 8.57272 15.8023 8.125 15.25 8.125H14.375V6.25C14.375 3.8475 12.4025 1.875 10 1.875ZM10 3.125C11.7213 3.125 13.125 4.52875 13.125 6.25V8.125H6.875V6.25C6.875 4.52875 8.27875 3.125 10 3.125ZM5 9.375H15V16.875H5V9.375Z" fill="#4F4F4F"/>
</svg>
