<svg width="20" height="20" viewBox="0 0 20 20" fill="none" xmlns="http://www.w3.org/2000/svg">
<path d="M10 3.125C7.59063 3.125 5.625 5.09063 5.625 7.5C5.625 9.00625 6.39375 10.3438 7.55875 11.1331C5.32938 12.0894 3.75 14.3019 3.75 16.875H5C4.99921 16.0205 5.21795 15.1802 5.63525 14.4346C6.05255 13.689 6.65441 13.0631 7.38312 12.6169C7.59638 13.136 7.95887 13.5802 8.42471 13.8931C8.89055 14.2061 9.43879 14.3738 10 14.375C10.5613 14.3739 11.1097 14.2063 11.5757 13.8933C12.0416 13.5803 12.4042 13.1361 12.6175 12.6169C13.3461 13.0631 13.9478 13.6891 14.365 14.4347C14.7822 15.1803 15.0009 16.0206 15 16.875H16.25C16.25 14.3019 14.6706 12.09 12.4412 11.1325C13.0358 10.7311 13.523 10.1901 13.8601 9.55687C14.1972 8.92361 14.374 8.21739 14.375 7.5C14.375 5.09063 12.4094 3.125 10 3.125ZM10 4.375C11.7331 4.375 13.125 5.76688 13.125 7.5C13.125 9.23313 11.7331 10.625 10 10.625C8.26687 10.625 6.875 9.23313 6.875 7.5C6.875 5.76688 8.26687 4.375 10 4.375ZM10 11.875C10.5125 11.875 11.0012 11.9481 11.465 12.09C11.3582 12.3933 11.16 12.656 10.8976 12.8418C10.6351 13.0276 10.3215 13.1274 10 13.1274C9.67846 13.1274 9.36485 13.0276 9.10244 12.8418C8.84004 12.656 8.64177 12.3933 8.535 12.09C9.00993 11.9459 9.50369 11.8734 10 11.875Z" fill="#4F4F4F"/>
</svg>
