<svg width="20" height="20" viewBox="0 0 20 20" fill="none" xmlns="http://www.w3.org/2000/svg">
<path d="M15 8.125H13.75C13.7495 7.62787 13.5518 7.15125 13.2003 6.79972C12.8488 6.4482 12.3721 6.2505 11.875 6.25V5C12.7035 5.00099 13.4978 5.33055 14.0836 5.91639C14.6694 6.50222 14.999 7.2965 15 8.125Z" fill="#4F4F4F"/>
<path d="M17.5 8.125H16.25C16.2487 6.96508 15.7873 5.85306 14.9672 5.03287C14.147 4.21269 13.0349 3.75132 11.875 3.75V2.5C13.3664 2.50165 14.7961 3.09482 15.8507 4.14935C16.9052 5.20389 17.4984 6.63367 17.5 8.125ZM16.25 18.125H16.1438C3.86252 17.4187 2.11877 7.05625 1.87502 3.89375C1.83693 3.39797 1.99732 2.90736 2.32094 2.52983C2.64455 2.1523 3.10487 1.91878 3.60065 1.88063C3.65023 1.87688 3.70002 1.875 3.75002 1.875H7.04377C7.29412 1.87476 7.53877 1.94969 7.74604 2.0901C7.95331 2.23051 8.11364 2.42992 8.20627 2.6625L9.15627 5C9.24774 5.22722 9.27044 5.4763 9.22155 5.71631C9.17266 5.95631 9.05433 6.17667 8.88127 6.35L7.55002 7.69375C7.75712 8.87583 8.32276 9.96562 9.17023 10.8153C10.0177 11.665 11.106 12.2335 12.2875 12.4438L13.6438 11.1C13.8197 10.9288 14.0421 10.8133 14.2833 10.7677C14.5245 10.7221 14.7738 10.7486 15 10.8438L17.3563 11.7875C17.5853 11.8831 17.7808 12.0446 17.9177 12.2517C18.0546 12.4587 18.1268 12.7018 18.125 12.95V16.25C18.125 16.7473 17.9275 17.2242 17.5758 17.5758C17.2242 17.9275 16.7473 18.125 16.25 18.125ZM3.75002 3.125C3.66795 3.12475 3.58662 3.14068 3.5107 3.17186C3.43478 3.20304 3.36574 3.24887 3.30753 3.30673C3.24932 3.36459 3.20308 3.43336 3.17144 3.50909C3.1398 3.58483 3.12339 3.66605 3.12315 3.74813C3.12315 3.76563 3.12377 3.78292 3.12502 3.8C3.41252 7.5 5.25627 16.25 16.2125 16.875C16.3779 16.8849 16.5405 16.8287 16.6645 16.7188C16.7885 16.6088 16.8638 16.4542 16.8738 16.2887L16.875 16.25V12.95L14.5188 12.0062L12.725 13.7875L12.425 13.75C6.98752 13.0688 6.25002 7.63125 6.25002 7.575L6.21252 7.275L7.98752 5.48125L7.05002 3.125H3.75002Z" fill="#4F4F4F"/>
</svg>
