<svg width="81" height="80" viewBox="0 0 81 80" fill="none" xmlns="http://www.w3.org/2000/svg">
<g clip-path="url(#clip0_972_2607)">
<path fill-rule="evenodd" clip-rule="evenodd" d="M29.25 9C28.1484 9 27.25 9.89844 27.25 11V23H25.25C24.6953 23 24.25 23.4492 24.25 24C24.25 24.5508 24.6953 25 25.25 25H27.25V27H25.25C24.6953 27 24.25 27.4492 24.25 28C24.25 28.5508 24.6953 29 25.25 29H27.25V34C27.25 34.5508 27.6953 35 28.25 35C28.8047 35 29.25 34.5508 29.25 34V25H35.25C38.5586 25 41.25 22.3086 41.25 19V15C41.25 11.6914 38.5586 9 35.25 9H29.25ZM31.25 27C30.6953 27 30.25 27.4492 30.25 28C30.25 28.5508 30.6953 29 31.25 29H37.25C37.8047 29 38.25 28.5508 38.25 28C38.25 27.4492 37.8047 27 37.25 27H31.25ZM29.25 11H35.25C37.457 11 39.25 12.793 39.25 15V19C39.25 21.207 37.457 23 35.25 23H29.25V11Z" fill="white"/>
<path d="M27.25 23V23.25H27.5V23H27.25ZM27.25 25H27.5V24.75H27.25V25ZM27.25 27V27.25H27.5V27H27.25ZM27.25 29H27.5V28.75H27.25V29ZM29.25 25V24.75H29V25H29.25ZM29.25 11V10.75H29V11H29.25ZM29.25 23H29V23.25H29.25V23ZM27.5 11C27.5 10.0365 28.2865 9.25 29.25 9.25V8.75C28.0104 8.75 27 9.76037 27 11H27.5ZM27.5 23V11H27V23H27.5ZM25.25 23.25H27.25V22.75H25.25V23.25ZM24.5 24C24.5 23.5867 24.834 23.25 25.25 23.25V22.75C24.5566 22.75 24 23.3118 24 24H24.5ZM25.25 24.75C24.834 24.75 24.5 24.4133 24.5 24H24C24 24.6882 24.5566 25.25 25.25 25.25V24.75ZM27.25 24.75H25.25V25.25H27.25V24.75ZM27.5 27V25H27V27H27.5ZM25.25 27.25H27.25V26.75H25.25V27.25ZM24.5 28C24.5 27.5867 24.834 27.25 25.25 27.25V26.75C24.5566 26.75 24 27.3118 24 28H24.5ZM25.25 28.75C24.834 28.75 24.5 28.4133 24.5 28H24C24 28.6882 24.5566 29.25 25.25 29.25V28.75ZM27.25 28.75H25.25V29.25H27.25V28.75ZM27.5 34V29H27V34H27.5ZM28.25 34.75C27.834 34.75 27.5 34.4133 27.5 34H27C27 34.6882 27.5566 35.25 28.25 35.25V34.75ZM29 34C29 34.4133 28.666 34.75 28.25 34.75V35.25C28.9434 35.25 29.5 34.6882 29.5 34H29ZM29 25V34H29.5V25H29ZM35.25 24.75H29.25V25.25H35.25V24.75ZM41 19C41 22.1705 38.4205 24.75 35.25 24.75V25.25C38.6967 25.25 41.5 22.4467 41.5 19H41ZM41 15V19H41.5V15H41ZM35.25 9.25C38.4205 9.25 41 11.8295 41 15H41.5C41.5 11.5533 38.6967 8.75 35.25 8.75V9.25ZM29.25 9.25H35.25V8.75H29.25V9.25ZM30.5 28C30.5 27.5867 30.834 27.25 31.25 27.25V26.75C30.5566 26.75 30 27.3118 30 28H30.5ZM31.25 28.75C30.834 28.75 30.5 28.4133 30.5 28H30C30 28.6882 30.5566 29.25 31.25 29.25V28.75ZM37.25 28.75H31.25V29.25H37.25V28.75ZM38 28C38 28.4133 37.666 28.75 37.25 28.75V29.25C37.9434 29.25 38.5 28.6882 38.5 28H38ZM37.25 27.25C37.666 27.25 38 27.5867 38 28H38.5C38.5 27.3118 37.9434 26.75 37.25 26.75V27.25ZM31.25 27.25H37.25V26.75H31.25V27.25ZM35.25 10.75H29.25V11.25H35.25V10.75ZM39.5 15C39.5 12.6549 37.5951 10.75 35.25 10.75V11.25C37.319 11.25 39 12.931 39 15H39.5ZM39.5 19V15H39V19H39.5ZM35.25 23.25C37.5951 23.25 39.5 21.3451 39.5 19H39C39 21.069 37.319 22.75 35.25 22.75V23.25ZM29.25 23.25H35.25V22.75H29.25V23.25ZM29 11V23H29.5V11H29Z" fill="white"/>
<path d="M74 21.25H67.75V5C67.7487 3.67431 67.2215 2.40329 66.2841 1.46589C65.3467 0.528489 64.0757 0.00129066 62.75 0L10.25 0C8.92434 0.00138975 7.65338 0.52862 6.716 1.466C5.77862 2.40338 5.25139 3.67434 5.25 5V78.75C5.24994 78.9762 5.31123 79.1981 5.42734 79.3922C5.54346 79.5862 5.71005 79.7451 5.90936 79.852C6.10867 79.9589 6.33324 80.0097 6.55914 79.999C6.78504 79.9883 7.0038 79.9165 7.19212 79.7913L10.2579 77.7515L13.3237 79.7913C13.5288 79.9283 13.77 80.0014 14.0167 80.0012C14.2634 80.001 14.5044 79.9275 14.7092 79.79L17.7677 77.7525L20.8255 79.79C21.0307 79.9273 21.272 80.0006 21.5189 80.0006C21.7657 80.0006 22.0071 79.9273 22.2122 79.79L25.2689 77.7525L28.3219 79.79C28.5272 79.9273 28.7686 80.0006 29.0156 80.0006C29.2626 80.0006 29.5041 79.9273 29.7094 79.79L32.7666 77.7525L35.8239 79.79C36.0291 79.9273 36.2704 80.0006 36.5173 80.0006C36.7641 80.0006 37.0054 79.9273 37.2106 79.79L40.266 77.7525L43.3203 79.79C43.5254 79.9273 43.7667 80.0005 44.0136 80.0005C44.2604 80.0005 44.5017 79.9273 44.7069 79.79L47.7624 77.7525L50.8153 79.79C51.0204 79.9273 51.2618 80.0006 51.5086 80.0006C51.7555 80.0006 51.9968 79.9273 52.202 79.79L55.2563 77.7525L58.3055 79.79C58.4938 79.9158 58.7127 79.9881 58.9388 79.9992C59.165 80.0103 59.3899 79.9597 59.5895 79.8529C59.7892 79.7462 59.9561 79.5871 60.0724 79.3929C60.1887 79.1986 60.2501 78.9764 60.25 78.75V48.75H70.25C71.5757 48.7487 72.8467 48.2215 73.7841 47.2841C74.7215 46.3467 75.2487 45.0757 75.25 43.75V22.5C75.25 22.1685 75.1183 21.8505 74.8839 21.6161C74.6495 21.3817 74.3315 21.25 74 21.25ZM57.75 76.4125L55.95 75.2101C55.7446 75.0729 55.5032 74.9997 55.2563 74.9997C55.0093 74.9997 54.7679 75.0729 54.5625 75.2101L51.5082 77.2476L48.4554 75.2101C48.2502 75.0728 48.0089 74.9996 47.762 74.9996C47.5151 74.9996 47.2738 75.0728 47.0686 75.2101L44.0131 77.2476L40.9596 75.2101C40.7543 75.0728 40.5129 74.9995 40.2659 74.9995C40.0189 74.9995 39.7774 75.0728 39.5721 75.2101L36.5167 77.2476L33.4595 75.2101C33.2543 75.0728 33.013 74.9996 32.7661 74.9996C32.5193 74.9996 32.2779 75.0728 32.0728 75.2101L29.0161 77.2476L25.9631 75.2101C25.7578 75.0728 25.5164 74.9995 25.2694 74.9995C25.0224 74.9995 24.7809 75.0728 24.5756 75.2101L21.5184 77.2476L18.4605 75.2101C18.2553 75.0729 18.014 74.9996 17.7672 74.9996C17.5203 74.9996 17.279 75.0729 17.0739 75.2101L14.0147 77.2486L10.95 75.2087C10.7448 75.0726 10.504 75 10.2578 75C10.0116 75 9.77081 75.0726 9.56562 75.2087L7.75 76.4173V5C7.75076 4.33719 8.0144 3.70175 8.48307 3.23307C8.95175 2.7644 9.58719 2.50076 10.25 2.5H58.4214C57.9893 3.26296 57.7583 4.12323 57.75 5V76.4125ZM60.25 46.25V5C60.25 4.33696 60.5134 3.70107 60.9822 3.23223C61.4511 2.76339 62.087 2.5 62.75 2.5C63.413 2.5 64.0489 2.76339 64.5178 3.23223C64.9866 3.70107 65.25 4.33696 65.25 5V43.75C65.2582 44.6268 65.4892 45.4871 65.9214 46.25H60.25ZM72.75 43.75C72.75 44.413 72.4866 45.0489 72.0178 45.5178C71.5489 45.9866 70.913 46.25 70.25 46.25C69.587 46.25 68.9511 45.9866 68.4822 45.5178C68.0134 45.0489 67.75 44.413 67.75 43.75V23.75H72.75V43.75Z" fill="white"/>
<path d="M12.75 46.25H45.25C45.5815 46.25 45.8995 46.1183 46.1339 45.8839C46.3683 45.6495 46.5 45.3315 46.5 45C46.5 44.6685 46.3683 44.3505 46.1339 44.1161C45.8995 43.8817 45.5815 43.75 45.25 43.75H12.75C12.4185 43.75 12.1005 43.8817 11.8661 44.1161C11.6317 44.3505 11.5 44.6685 11.5 45C11.5 45.3315 11.6317 45.6495 11.8661 45.8839C12.1005 46.1183 12.4185 46.25 12.75 46.25Z" fill="white"/>
<path d="M12.75 52.5H45.25C45.5815 52.5 45.8995 52.3683 46.1339 52.1339C46.3683 51.8995 46.5 51.5815 46.5 51.25C46.5 50.9185 46.3683 50.6005 46.1339 50.3661C45.8995 50.1317 45.5815 50 45.25 50H12.75C12.4185 50 12.1005 50.1317 11.8661 50.3661C11.6317 50.6005 11.5 50.9185 11.5 51.25C11.5 51.5815 11.6317 51.8995 11.8661 52.1339C12.1005 52.3683 12.4185 52.5 12.75 52.5Z" fill="white"/>
<path d="M12.75 58.75H45.25C45.5815 58.75 45.8995 58.6183 46.1339 58.3839C46.3683 58.1495 46.5 57.8315 46.5 57.5C46.5 57.1685 46.3683 56.8505 46.1339 56.6161C45.8995 56.3817 45.5815 56.25 45.25 56.25H12.75C12.4185 56.25 12.1005 56.3817 11.8661 56.6161C11.6317 56.8505 11.5 57.1685 11.5 57.5C11.5 57.8315 11.6317 58.1495 11.8661 58.3839C12.1005 58.6183 12.4185 58.75 12.75 58.75Z" fill="white"/>
<path d="M46.5 63.75C46.5 63.4185 46.3683 63.1005 46.1339 62.8661C45.8995 62.6317 45.5815 62.5 45.25 62.5H12.75C12.4185 62.5 12.1005 62.6317 11.8661 62.8661C11.6317 63.1005 11.5 63.4185 11.5 63.75C11.5 64.0815 11.6317 64.3995 11.8661 64.6339C12.1005 64.8683 12.4185 65 12.75 65H45.25C45.5815 65 45.8995 64.8683 46.1339 64.6339C46.3683 64.3995 46.5 64.0815 46.5 63.75Z" fill="white"/>
<path d="M52.75 68.75H36.5C36.1685 68.75 35.8505 68.8817 35.6161 69.1161C35.3817 69.3505 35.25 69.6685 35.25 70C35.25 70.3315 35.3817 70.6495 35.6161 70.8839C35.8505 71.1183 36.1685 71.25 36.5 71.25H52.75C53.0815 71.25 53.3995 71.1183 53.6339 70.8839C53.8683 70.6495 54 70.3315 54 70C54 69.6685 53.8683 69.3505 53.6339 69.1161C53.3995 68.8817 53.0815 68.75 52.75 68.75Z" fill="white"/>
<path d="M52.75 43.75H49C48.6685 43.75 48.3505 43.8817 48.1161 44.1161C47.8817 44.3505 47.75 44.6685 47.75 45C47.75 45.3315 47.8817 45.6495 48.1161 45.8839C48.3505 46.1183 48.6685 46.25 49 46.25H52.75C53.0815 46.25 53.3995 46.1183 53.6339 45.8839C53.8683 45.6495 54 45.3315 54 45C54 44.6685 53.8683 44.3505 53.6339 44.1161C53.3995 43.8817 53.0815 43.75 52.75 43.75Z" fill="white"/>
<path d="M52.75 50H49C48.6685 50 48.3505 50.1317 48.1161 50.3661C47.8817 50.6005 47.75 50.9185 47.75 51.25C47.75 51.5815 47.8817 51.8995 48.1161 52.1339C48.3505 52.3683 48.6685 52.5 49 52.5H52.75C53.0815 52.5 53.3995 52.3683 53.6339 52.1339C53.8683 51.8995 54 51.5815 54 51.25C54 50.9185 53.8683 50.6005 53.6339 50.3661C53.3995 50.1317 53.0815 50 52.75 50Z" fill="white"/>
<path d="M52.75 56.25H49C48.6685 56.25 48.3505 56.3817 48.1161 56.6161C47.8817 56.8505 47.75 57.1685 47.75 57.5C47.75 57.8315 47.8817 58.1495 48.1161 58.3839C48.3505 58.6183 48.6685 58.75 49 58.75H52.75C53.0815 58.75 53.3995 58.6183 53.6339 58.3839C53.8683 58.1495 54 57.8315 54 57.5C54 57.1685 53.8683 56.8505 53.6339 56.6161C53.3995 56.3817 53.0815 56.25 52.75 56.25Z" fill="white"/>
<path d="M52.75 62.5H49C48.6685 62.5 48.3505 62.6317 48.1161 62.8661C47.8817 63.1005 47.75 63.4185 47.75 63.75C47.75 64.0815 47.8817 64.3995 48.1161 64.6339C48.3505 64.8683 48.6685 65 49 65H52.75C53.0815 65 53.3995 64.8683 53.6339 64.6339C53.8683 64.3995 54 64.0815 54 63.75C54 63.4185 53.8683 63.1005 53.6339 62.8661C53.3995 62.6317 53.0815 62.5 52.75 62.5Z" fill="white"/>
<path d="M50.25 22.25H51.5C51.8315 22.25 52.1495 22.1183 52.3839 21.8839C52.6183 21.6495 52.75 21.3315 52.75 21C52.75 20.6685 52.6183 20.3505 52.3839 20.1161C52.1495 19.8817 51.8315 19.75 51.5 19.75H50.25C49.9185 19.75 49.6005 19.8817 49.3661 20.1161C49.1317 20.3505 49 20.6685 49 21C49 21.3315 49.1317 21.6495 49.3661 21.8839C49.6005 22.1183 49.9185 22.25 50.25 22.25Z" fill="white"/>
<path d="M14 22.25H15.25C15.5815 22.25 15.8995 22.1183 16.1339 21.8839C16.3683 21.6495 16.5 21.3315 16.5 21C16.5 20.6685 16.3683 20.3505 16.1339 20.1161C15.8995 19.8817 15.5815 19.75 15.25 19.75H14C13.6685 19.75 13.3505 19.8817 13.1161 20.1161C12.8817 20.3505 12.75 20.6685 12.75 21C12.75 21.3315 12.8817 21.6495 13.1161 21.8839C13.3505 22.1183 13.6685 22.25 14 22.25Z" fill="white"/>
</g>
<defs>
<clipPath id="clip0_972_2607">
<rect width="80" height="80" fill="white" transform="translate(0.25)"/>
</clipPath>
</defs>
</svg>
