<svg width="52" height="52" viewBox="0 0 52 52" fill="none" xmlns="http://www.w3.org/2000/svg">
<g clip-path="url(#clip0_807_1116)">
<path d="M51.39 25.695C51.39 27.0674 51.2375 28.5161 51.085 29.8123C49.1026 42.0117 38.4282 51.39 25.695 51.39C11.5894 51.4663 0 39.8006 0 25.695C0 11.5894 11.5894 0 25.695 0V10.9795C17.5367 10.9795 10.9795 17.5367 10.9795 25.695C10.9795 33.8534 17.6129 40.4106 25.695 40.4106C33.0147 40.4106 39.1144 35.0733 40.2581 28.0586C40.4106 27.2962 40.4106 26.5337 40.4106 25.695H51.39Z" fill="url(#paint0_linear_807_1116)"/>
<path d="M25.695 0V25.695H51.39L25.695 0Z" fill="url(#paint1_linear_807_1116)"/>
<path d="M40.4106 25.6948C40.4106 26.5335 40.3343 27.296 40.2581 28.0585L25.695 25.6948H40.4106Z" fill="#BABCBE"/>
<path d="M51.39 25.6948C51.39 27.0673 51.2375 28.5159 51.0851 29.8121L40.2581 28.0585C40.4106 27.296 40.4106 26.5335 40.4106 25.6948H51.39Z" fill="#981B1E"/>
</g>
<defs>
<linearGradient id="paint0_linear_807_1116" x1="3.88246" y1="16.5365" x2="45.8515" y2="36.9215" gradientUnits="userSpaceOnUse">
<stop stop-color="#EE4036"/>
<stop offset="0.3774" stop-color="#EB3D35"/>
<stop offset="0.6619" stop-color="#E13531"/>
<stop offset="0.9153" stop-color="#D1262A"/>
<stop offset="1" stop-color="#CA2027"/>
</linearGradient>
<linearGradient id="paint1_linear_807_1116" x1="26.0452" y1="23.1487" x2="37.2368" y2="13.9556" gradientUnits="userSpaceOnUse">
<stop offset="0.7274" stop-color="#F27B53"/>
<stop offset="0.8473" stop-color="#F16B3F"/>
<stop offset="1" stop-color="#F05A2A"/>
</linearGradient>
<clipPath id="clip0_807_1116">
<rect width="51.7713" height="52" fill="white"/>
</clipPath>
</defs>
</svg>
